<?xml version="1.0" encoding="UTF-8"?>
<svg version="1.1" xmlns="http://www.w3.org/2000/svg" width="1024" height="1024">
<path d="M0 0 C1.81181025 -0.0027495 3.6236189 -0.00680913 5.43542367 -0.01204365 C10.35136996 -0.02250888 15.26713119 -0.0145817 20.18306911 -0.00329316 C25.50893505 0.00562466 30.83477872 -0.00291629 36.16064453 -0.00915527 C46.56840899 -0.01860091 56.97610369 -0.01208102 67.38386294 0.00010767 C79.52147539 0.01378821 91.65907158 0.01208453 103.79668979 0.00997434 C125.46109785 0.00679073 147.12547293 0.01841673 168.78987122 0.03804016 C189.78109236 0.05704865 210.77227489 0.06412506 231.76350403 0.05854797 C254.6618751 0.05248212 277.56022924 0.05268148 300.45859891 0.06403381 C302.90282237 0.06524101 305.34704584 0.066447 307.7912693 0.06765175 C308.99365774 0.06825529 310.19604618 0.06885883 311.43487063 0.06948065 C319.88298606 0.07334986 328.33109516 0.07297008 336.77921104 0.0710659 C347.08090178 0.06893785 357.3825588 0.07421432 367.68424007 0.08867946 C372.93396582 0.0958933 378.18364264 0.10002629 383.4333725 0.0954361 C388.2489199 0.09132811 393.06436671 0.09661384 397.87989894 0.10906217 C399.61175667 0.11196444 401.34362404 0.11159528 403.07547917 0.1074191 C417.52313054 0.07577225 432.19500403 0.55874081 446.08113098 4.9367218 C447.32358582 5.32199036 447.32358582 5.32199036 448.59114075 5.71504211 C476.09285885 14.69755342 498.18233228 34.6215097 511.33113098 60.1867218 C514.71343303 66.9811332 517.09035336 73.95459853 519.17097473 81.2414093 C519.9419429 84.24578067 519.9419429 84.24578067 521.08113098 86.3742218 C522.47760564 96.22224832 522.22997626 106.24273703 522.228302 116.16574097 C522.23160726 117.95272063 522.23533421 119.73969955 522.23944348 121.52667755 C522.24939564 126.41116787 522.25316922 131.2956459 522.25583279 136.18014491 C522.2597559 141.45847057 522.26933245 146.73678668 522.27804565 152.0151062 C522.29774923 164.74593494 522.30786655 177.4767644 522.31677344 190.20760456 C522.32116464 196.21170614 522.32652912 202.21580686 522.33176231 208.21990776 C522.34876523 228.19163231 522.36325932 248.16335634 522.37051105 268.13508701 C522.37242074 273.3102576 522.37434111 278.48542818 522.376297 283.66059875 C522.37678074 284.94675565 522.37726448 286.23291254 522.37776288 287.55804389 C522.38606317 308.39255404 522.4114043 329.22700677 522.44387767 350.06149185 C522.47698645 371.47908968 522.49496309 392.89665834 522.4981553 414.31428188 C522.50031638 426.32859199 522.50900676 438.34281826 522.53461647 450.35710335 C522.55637531 460.5879446 522.56434825 470.81868162 522.55464969 481.04954339 C522.5501206 486.26307314 522.55191006 491.47638804 522.57141113 496.689888 C522.58915471 501.47510207 522.58795531 506.25994633 522.57251384 511.04516494 C522.5701547 512.76384541 522.57437185 514.48255227 522.58634249 516.20119268 C522.78874766 547.2153311 512.06954135 576.04238729 490.23738098 598.34687805 C467.28740194 620.77208623 438.2632489 629.70246966 406.72688293 629.64164734 C404.87874288 629.64538896 403.03060441 629.64999251 401.18246841 629.65537798 C396.12886793 629.66756041 391.07533388 629.66735314 386.02172208 629.66498923 C380.56136646 629.66457985 375.1010318 629.67563184 369.64068604 629.68510437 C358.95143626 629.70168981 348.26220854 629.70721283 337.57294697 629.70832913 C328.87917928 629.70928087 320.18541884 629.71339751 311.49165344 629.71973038 C286.81731119 629.73733698 262.14298407 629.74658247 237.4686358 629.74506943 C236.80431791 629.74502954 236.14000003 629.74498965 235.4555513 629.74494855 C234.1121388 629.74486767 232.7687263 629.74478408 231.4253138 629.74469777 C210.53826015 629.74347309 189.65127151 629.75847324 168.76423645 629.7858429 C145.26637109 629.81662142 121.76854139 629.83374656 98.27065372 629.83191645 C85.8410452 629.8312538 73.41150999 629.83669139 60.98191833 629.85827255 C50.39683434 629.87653398 39.81185688 629.88079111 29.2267639 629.86725371 C23.83286847 629.86074876 18.43917713 629.8605169 13.04530144 629.87796021 C8.09411147 629.89380624 3.14328546 629.89071094 -1.80789626 629.87339194 C-3.58581064 629.87034719 -5.36375298 629.8738574 -7.14163435 629.88511209 C-38.91141414 630.07268304 -65.98979903 619.55614835 -89.47746277 597.87812805 C-103.74190425 583.24851686 -113.32090744 564.86599611 -117.37590027 544.88594055 C-117.80607662 542.3930316 -117.80607662 542.3930316 -118.91886902 540.3742218 C-119.02050038 538.0660783 -119.05463719 535.75489863 -119.06032753 533.44452572 C-119.06346934 532.71962211 -119.06661116 531.99471851 -119.06984818 531.24784812 C-119.07924873 528.79378318 -119.08148891 526.33976229 -119.08381653 523.88568115 C-119.08909451 522.11828055 -119.09480669 520.3508812 -119.10091817 518.58348328 C-119.11649518 513.70674826 -119.12581083 508.83001785 -119.13413668 503.95326579 C-119.14417123 498.70070164 -119.15991009 493.44815425 -119.17492676 488.19560242 C-119.20343774 477.89368889 -119.22652955 467.59176992 -119.24770452 457.28983896 C-119.26501838 448.9118804 -119.28425181 440.53392832 -119.30486679 432.15597725 C-119.30779539 430.96497582 -119.31072398 429.7739744 -119.31374132 428.54688202 C-119.31969835 426.12743551 -119.32565956 423.70798901 -119.33162491 421.28854252 C-119.38741286 398.56741476 -119.43705081 375.8462767 -119.48462991 353.12513048 C-119.52556447 333.64670544 -119.57182414 314.168299 -119.62199402 294.68989563 C-119.68024007 272.07513518 -119.7350811 249.4603706 -119.78459489 226.84558922 C-119.78989286 224.43029375 -119.79519547 222.01499829 -119.80050278 219.59970284 C-119.80311261 218.41135339 -119.80572245 217.22300395 -119.80841137 215.99864392 C-119.82699833 207.64240548 -119.84800713 199.28617517 -119.86996841 190.92994499 C-119.89671634 180.72848265 -119.91973231 170.52701989 -119.93805338 160.32553881 C-119.94748713 155.12454879 -119.95854361 149.92357639 -119.97415733 144.72260094 C-119.98843493 139.95078496 -119.99782127 135.17898402 -120.00348739 130.40715028 C-120.00634912 128.69089886 -120.01091836 126.97464915 -120.01747616 125.25840788 C-120.13002746 94.88884088 -120.13002746 94.88884088 -116.91886902 81.9992218 C-116.70593201 81.13055481 -116.492995 80.26188782 -116.27360535 79.36689758 C-112.83499435 66.31459692 -106.95111714 54.07945529 -98.54777527 43.50312805 C-96.8754723 41.48696447 -96.8754723 41.48696447 -96.00871277 39.33906555 C-94.49630574 36.61239625 -92.38774219 35.26051195 -89.91886902 33.3742218 C-88.09940999 31.65237905 -86.28741414 29.92262924 -84.48136902 28.1867218 C-74.62463419 18.99379214 -63.38642313 12.46110871 -50.91886902 7.3742218 C-50.00234558 6.99523743 -49.08582214 6.61625305 -48.14152527 6.2257843 C-32.84167517 0.51784584 -16.14913501 -0.07547893 0 0 Z M202.08113098 41.3742218 C202.08113098 131.1342218 202.08113098 220.8942218 202.08113098 313.3742218 C194.49113098 313.3742218 186.90113098 313.3742218 179.08113098 313.3742218 C179.08113098 313.7042218 179.08113098 314.0342218 179.08113098 314.3742218 C171.49113098 314.3742218 163.90113098 314.3742218 156.08113098 314.3742218 C156.08113098 314.0442218 156.08113098 313.7142218 156.08113098 313.3742218 C148.49113098 313.3742218 140.90113098 313.3742218 133.08113098 313.3742218 C133.41113098 314.0342218 133.74113098 314.6942218 134.08113098 315.3742218 C132.43113098 315.0442218 130.78113098 314.7142218 129.08113098 314.3742218 C129.08113098 314.0442218 129.08113098 313.7142218 129.08113098 313.3742218 C128.00629456 313.3742218 126.93145813 313.3742218 125.8240509 313.3742218 C113.90974426 313.3742218 101.99543762 313.3742218 90.08113098 313.3742218 C89.75113098 314.0342218 89.42113098 314.6942218 89.08113098 315.3742218 C76.54113098 315.3742218 64.00113098 315.3742218 51.08113098 315.3742218 C51.08113098 314.7142218 51.08113098 314.0542218 51.08113098 313.3742218 C50.11175598 313.3742218 49.14238098 313.3742218 48.14363098 313.3742218 C45.81196653 313.3742218 43.59563999 313.35264442 41.26863098 313.2492218 C38.1793157 313.37037142 36.66640451 313.78328424 34.08113098 315.3742218 C34.08113098 314.7142218 34.08113098 314.0542218 34.08113098 313.3742218 C32.94675598 313.3742218 31.81238098 313.3742218 30.64363098 313.3742218 C10.12279765 313.3742218 -10.39803569 313.3742218 -30.91886902 313.3742218 C-30.91886902 313.7042218 -30.91886902 314.0342218 -30.91886902 314.3742218 C-35.86886902 314.3742218 -40.81886902 314.3742218 -45.91886902 314.3742218 C-45.91886902 314.0442218 -45.91886902 313.7142218 -45.91886902 313.3742218 C-56.47886902 313.3742218 -67.03886902 313.3742218 -77.91886902 313.3742218 C-78.01162225 341.26076437 -78.08292796 369.14726955 -78.12611771 397.03393555 C-78.14670802 409.98335535 -78.174761 422.93267731 -78.22062683 435.8820343 C-78.26060279 447.17391942 -78.28632747 458.46573365 -78.295223 469.75768757 C-78.30041953 475.73195489 -78.3125594 481.70601947 -78.34178925 487.68022156 C-78.36912847 493.31415155 -78.37727685 498.94779707 -78.37129974 504.58178711 C-78.37239175 506.63915559 -78.38023444 508.69653451 -78.39569092 510.75384521 C-78.54592646 531.79967899 -75.32578749 551.36118971 -60.25968933 567.23384094 C-54.07968967 573.42544129 -47.85766711 579.39552128 -38.91886902 580.3742218 C-38.91886902 581.0342218 -38.91886902 581.6942218 -38.91886902 582.3742218 C-25.69903319 587.62794584 -11.94455501 587.25190592 2.08113098 587.3742218 C3.25950531 587.38552124 3.25950531 587.38552124 4.46168518 587.39704895 C10.48064115 587.45255568 16.49944644 587.48354833 22.51863098 587.4992218 C23.36385315 587.50208191 24.20907532 587.50494202 25.07991028 587.50788879 C27.49572845 587.5136525 29.91140672 587.5117726 32.32722473 587.5070343 C33.41456154 587.50998001 33.41456154 587.50998001 34.52386475 587.51298523 C37.87670982 587.49761221 40.86089262 587.30600057 44.08113098 586.3742218 C47.40971025 586.25094109 50.47037126 586.25984062 53.74836731 586.87373352 C57.87056407 587.49277266 61.86873375 587.51744112 66.03034973 587.5070343 C66.88361343 587.50799103 67.73687714 587.50894775 68.61599731 587.50993347 C70.4171201 587.51061178 72.21824537 587.50878192 74.0193634 587.5045929 C76.74248414 587.49927288 79.46543744 587.50453264 82.18855286 587.51094055 C92.59991314 587.55253709 92.59991314 587.55253709 102.97566223 586.8039093 C106.82567991 586.37019132 110.37819138 586.49256559 114.23469543 586.84126282 C123.07058928 587.5202648 131.87195134 587.50034697 140.72956848 587.47187805 C142.28401147 587.47040306 143.83845497 587.46938579 145.39289856 587.46882629 C151.0806504 587.46363802 156.76839153 587.44967714 162.45613098 587.4367218 C175.20238098 587.4160968 187.94863098 587.3954718 201.08113098 587.3742218 C201.08113098 543.4842218 201.08113098 499.5942218 201.08113098 454.3742218 C195.47261149 458.58061142 192.81341076 460.69615915 188.76081848 465.63594055 C183.13380046 471.4592499 175.19344661 475.2102092 167.08113098 475.3742218 C156.84691176 473.7324505 150.01093153 468.71614705 143.08113098 461.3742218 C138.81964073 457.09150982 134.52391259 452.84322732 130.23323059 448.58979797 C122.34193839 440.76396345 114.46092485 432.92785811 106.58560848 425.08594799 C101.8251113 420.34608224 97.06090312 415.61005984 92.28791809 410.88276672 C87.66295067 406.30204955 83.04858283 401.71081865 78.44050789 397.11310768 C76.68617523 395.36614918 74.92833338 393.62270719 73.16689873 391.88290977 C70.70170669 389.44682213 68.24938729 386.99843118 65.79963684 384.54682922 C65.07381409 383.83538757 64.34799133 383.12394592 63.60017395 382.39094543 C57.32687531 376.06626989 53.08761494 369.34865899 52.76863098 360.2492218 C52.85700646 353.5547793 55.17000625 347.76312772 59.33113098 342.5617218 C62.74452447 339.84652244 66.28816379 337.52331852 70.08113098 335.3742218 C70.71921692 335.00168274 71.35730286 334.62914368 72.01472473 334.24531555 C74.49575575 333.19943669 76.39528025 333.10784466 79.08113098 333.1242218 C79.92675598 333.11906555 80.77238098 333.1139093 81.64363098 333.1085968 C84.29039672 333.3970264 85.7423978 334.13783007 88.08113098 335.3742218 C88.74293365 335.68735321 89.40473633 336.00048462 90.08659363 336.32310486 C99.68129741 341.41879119 106.82778226 349.62285002 114.37019348 357.2726593 C115.92443937 358.8343765 117.47957892 360.39520477 119.03556824 361.95518494 C123.10502829 366.03983096 127.1623255 370.13634945 131.21711731 374.23554993 C135.36626335 378.4258008 139.5269242 382.60458431 143.68659973 386.78437805 C151.8293523 394.96987722 159.95928813 403.16797877 168.08113098 411.3742218 C169.02214661 410.59562805 169.96316223 409.8170343 170.93269348 409.0148468 C171.46201477 408.57688782 171.99133606 408.13892883 172.53669739 407.68769836 C177.23375588 403.6930454 181.19395846 399.01598766 185.21394348 394.36250305 C187.08113098 392.3742218 187.08113098 392.3742218 190.08113098 390.3742218 C190.08113098 389.7142218 190.08113098 389.0542218 190.08113098 388.3742218 C190.72050598 388.1060968 191.35988098 387.8379718 192.01863098 387.5617218 C194.41244784 386.48754428 194.41244784 386.48754428 195.08113098 383.3742218 C197.14363098 382.1867218 197.14363098 382.1867218 199.08113098 381.3742218 C199.08113098 380.7142218 199.08113098 380.0542218 199.08113098 379.3742218 C199.64088623 379.13912903 200.20064148 378.90403625 200.77735901 378.66181946 C203.64333336 377.06000213 205.61639551 375.093362 207.94148254 372.7726593 C208.41023804 372.30740845 208.87899353 371.84215759 209.36195374 371.36280823 C210.9036103 369.82992542 212.43787002 368.28987738 213.97175598 366.7492218 C215.04191845 365.68040677 216.11237765 364.61188877 217.18312073 363.5436554 C219.42224847 361.30747262 221.65772728 359.06772088 223.89070129 356.82539368 C226.75796838 353.94670484 229.63415714 351.07712397 232.51311111 348.21012878 C234.72311277 346.0073391 236.92834731 343.79982679 239.13214874 341.59083557 C240.19126688 340.53038053 241.25188024 339.47141671 242.31398773 338.41395569 C243.79366148 336.93933928 245.26680844 335.45850242 246.73835754 333.9757843 C247.57900757 333.13354309 248.41965759 332.29130188 249.28578186 331.42353821 C251.30078473 329.57758183 251.30078473 329.57758183 251.08113098 327.3742218 C251.65863098 327.1473468 252.23613098 326.9204718 252.83113098 326.6867218 C255.21322017 325.47797271 255.21322017 325.47797271 256.83113098 323.1867218 C259.4059464 319.96820252 262.29881021 317.53631426 265.47175598 314.92500305 C266.00284973 314.41324524 266.53394348 313.90148743 267.08113098 313.3742218 C267.08113098 312.7142218 267.08113098 312.0542218 267.08113098 311.3742218 C268.07113098 311.0442218 269.06113098 310.7142218 270.08113098 310.3742218 C270.08113098 309.7142218 270.08113098 309.0542218 270.08113098 308.3742218 C271.40113098 307.7142218 272.72113098 307.0542218 274.08113098 306.3742218 C274.08113098 305.7142218 274.08113098 305.0542218 274.08113098 304.3742218 C274.67152161 304.12285461 275.26191223 303.87148743 275.87019348 303.61250305 C278.35763905 302.21935774 279.66183821 300.7645742 281.45613098 298.5617218 C283.66486277 295.93318786 285.82662713 293.63118702 288.51863098 291.4992218 C289.36425598 290.7979718 290.20988098 290.0967218 291.08113098 289.3742218 C291.08113098 288.7142218 291.08113098 288.0542218 291.08113098 287.3742218 C291.74113098 287.3742218 292.40113098 287.3742218 293.08113098 287.3742218 C294.40152188 286.07169611 294.40152188 286.07169611 295.81306458 284.27339172 C301.60473669 277.4704531 308.04464041 271.2879527 314.37019348 264.98750305 C315.76090598 263.59865954 317.15139497 262.20959218 318.54167175 260.8203125 C322.18381582 257.18196516 325.82895119 253.54662944 329.4747467 249.91194153 C333.18129147 246.21563668 336.88500225 242.51649461 340.58894348 238.81758118 C346.57030201 232.84498471 352.55335961 226.87409688 358.53872681 220.90551758 C359.06557571 220.38011383 359.59242462 219.85471008 360.13523865 219.31338501 C360.63249073 218.817512 361.12974281 218.32163898 361.64206314 217.81073952 C363.04048126 216.41479949 364.43673934 215.01669664 365.83293152 213.61853027 C374.08700173 205.3787455 380.78318711 199.3742218 393.08113098 199.3742218 C400.57416832 200.43560341 407.74093875 202.63434845 412.90925598 208.4210968 C418.06558315 215.68000398 419.50257074 221.90437509 418.76081848 230.6867218 C417.02779015 237.53915568 413.4045826 242.64440705 408.41389465 247.51142883 C407.8588475 248.06866638 407.30380035 248.62590393 406.73193359 249.20002747 C404.91378266 251.02047008 403.0818335 252.82628378 401.24909973 254.6320343 C399.97040783 255.90579442 398.69253312 257.18037539 397.41543579 258.45573425 C394.74415153 261.11940244 392.0665683 263.7765011 389.38362122 266.42842102 C385.95903886 269.81345103 382.54529115 273.20914019 379.13558483 276.60914803 C375.86441992 279.87029689 372.58836703 283.12651609 369.31159973 286.3820343 C368.69408529 286.99615299 368.07657085 287.61027168 367.44034386 288.24300003 C365.67503942 289.99661019 363.90636478 291.74674618 362.1365509 293.49580383 C361.37021332 294.25810806 361.37021332 294.25810806 360.58839417 295.03581238 C357.46197158 298.11675379 354.23323224 300.95739304 350.79012012 303.68244743 C348.44932115 305.88626908 348.44932115 305.88626908 345.08113098 311.3742218 C389.63113098 311.3742218 434.18113098 311.3742218 480.08113098 311.3742218 C481.63021667 308.27605042 481.22171766 305.00412589 481.21484375 301.60391235 C481.21710931 300.79199297 481.21937486 299.98007358 481.22170907 299.14355057 C481.22806831 296.40703157 481.22721844 293.67056186 481.22639465 290.93403625 C481.22938521 288.97780798 481.2327875 287.02158029 481.23657227 285.06535339 C481.24543355 279.73611908 481.24775146 274.40690081 481.24838805 269.07765985 C481.24909811 265.74509212 481.25123174 262.41252849 481.25388527 259.07996178 C481.26315034 247.44358943 481.26721928 235.80722857 481.26643372 224.17085266 C481.26583472 213.34429883 481.27634839 202.51779512 481.29217738 191.69125396 C481.30529243 182.38744445 481.31061585 173.08365122 481.30997831 163.77983254 C481.3097242 158.22767803 481.31252619 152.67556789 481.32315636 147.12342262 C481.33290245 141.88923423 481.33287225 136.65513199 481.32563972 131.4209404 C481.32460147 129.50990738 481.32691112 127.59886883 481.33300018 125.68784523 C481.37298071 112.25887253 480.99126801 99.32560932 477.08113098 86.3742218 C476.09113098 86.3742218 475.10113098 86.3742218 474.08113098 86.3742218 C474.74113098 86.0442218 475.40113098 85.7142218 476.08113098 85.3742218 C471.33711078 70.05781371 460.62911893 57.96733891 446.95613098 49.83906555 C438.67320292 45.61882368 430.36189041 42.23113898 421.01838684 42.27656555 C419.7928862 42.27986877 418.56738556 42.283172 417.30474854 42.28657532 C416.65211973 42.29069427 415.99949093 42.29481323 415.32708549 42.29905701 C413.26963132 42.31188606 411.21224216 42.31835424 409.15475464 42.32319641 C404.03903363 42.336532 398.92337364 42.36058978 393.80769348 42.38459778 C389.49063001 42.40447994 385.17359078 42.42006468 380.856493 42.43016052 C378.84769076 42.43655712 376.8389112 42.44913111 374.83013916 42.46186829 C368.2410704 42.47931439 361.8075158 42.28955812 355.26303101 41.49311829 C352.90036598 41.23037761 352.90036598 41.23037761 350.08113098 42.3742218 C347.53002165 42.47091001 345.00708945 42.51421799 342.45613098 42.5070343 C341.71282532 42.50799103 340.96951965 42.50894775 340.20368958 42.50993347 C338.63353897 42.51061339 337.06338554 42.50877223 335.49324036 42.5045929 C333.09018133 42.49924195 330.6873092 42.50454422 328.28425598 42.51094055 C326.7582139 42.51027974 325.23217194 42.5089985 323.70613098 42.5070343 C322.9873175 42.50905853 322.26850403 42.51108276 321.52790833 42.51316833 C318.43719591 42.49864466 316.03692021 42.35948488 313.08113098 41.3742218 C311.29398264 41.28038501 309.5035524 41.24351649 307.71394348 41.2414093 C306.66335754 41.24012024 305.61277161 41.23883118 304.53034973 41.23750305 C303.43335754 41.24137024 302.33636536 41.24523743 301.20613098 41.2492218 C300.11687317 41.24535461 299.02761536 41.24148743 297.90534973 41.23750305 C296.85218567 41.23879211 295.79902161 41.24008118 294.71394348 41.2414093 C293.27365784 41.2431012 293.27365784 41.2431012 291.80427551 41.24482727 C289.14249896 41.29339114 289.14249896 41.29339114 286.84114075 41.8742218 C282.66540602 42.63069281 278.52317598 42.51637804 274.28816223 42.5070343 C273.31046371 42.50799103 272.3327652 42.50894775 271.32543945 42.50993347 C269.23822465 42.51061459 267.15100774 42.50876507 265.063797 42.5045929 C262.0050671 42.4994106 258.94649585 42.50445016 255.88777161 42.51094055 C237.9208138 42.49955104 220.06344582 41.90311341 202.08113098 41.3742218 Z M-44.91886902 313.3742218 C-44.91886902 313.7042218 -44.91886902 314.0342218 -44.91886902 314.3742218 C-40.62886902 314.3742218 -36.33886902 314.3742218 -31.91886902 314.3742218 C-31.91886902 314.0442218 -31.91886902 313.7142218 -31.91886902 313.3742218 C-36.20886902 313.3742218 -40.49886902 313.3742218 -44.91886902 313.3742218 Z M53.08113098 313.3742218 C53.08113098 313.7042218 53.08113098 314.0342218 53.08113098 314.3742218 C55.06113098 314.3742218 57.04113098 314.3742218 59.08113098 314.3742218 C59.08113098 314.0442218 59.08113098 313.7142218 59.08113098 313.3742218 C57.10113098 313.3742218 55.12113098 313.3742218 53.08113098 313.3742218 Z M60.08113098 313.3742218 C64.08113098 314.3742218 64.08113098 314.3742218 64.08113098 314.3742218 Z M65.08113098 313.3742218 C65.08113098 313.7042218 65.08113098 314.0342218 65.08113098 314.3742218 C70.69113098 314.3742218 76.30113098 314.3742218 82.08113098 314.3742218 C82.08113098 314.0442218 82.08113098 313.7142218 82.08113098 313.3742218 C76.47113098 313.3742218 70.86113098 313.3742218 65.08113098 313.3742218 Z M83.08113098 313.3742218 C83.08113098 313.7042218 83.08113098 314.0342218 83.08113098 314.3742218 C84.73113098 314.3742218 86.38113098 314.3742218 88.08113098 314.3742218 C88.08113098 314.0442218 88.08113098 313.7142218 88.08113098 313.3742218 C86.43113098 313.3742218 84.78113098 313.3742218 83.08113098 313.3742218 Z M157.08113098 313.3742218 C157.08113098 313.7042218 157.08113098 314.0342218 157.08113098 314.3742218 C158.73113098 314.3742218 160.38113098 314.3742218 162.08113098 314.3742218 C162.08113098 314.0442218 162.08113098 313.7142218 162.08113098 313.3742218 C160.43113098 313.3742218 158.78113098 313.3742218 157.08113098 313.3742218 Z M163.08113098 313.3742218 C163.08113098 313.7042218 163.08113098 314.0342218 163.08113098 314.3742218 C168.03113098 314.3742218 172.98113098 314.3742218 178.08113098 314.3742218 C178.08113098 314.0442218 178.08113098 313.7142218 178.08113098 313.3742218 C173.13113098 313.3742218 168.18113098 313.3742218 163.08113098 313.3742218 Z " fill="#1A5796" transform="translate(310.9188690185547,195.6257781982422)"/>
<path d="M0 0 C12.54 0 25.08 0 38 0 C38 0.66 38 1.32 38 2 C83.54 1.505 83.54 1.505 130 1 C130.06782723 28.4954217 130.12304593 55.99077523 130.15543652 83.48625946 C130.17087849 96.25405379 130.19191683 109.02179229 130.22631836 121.78955078 C130.25630259 132.92322246 130.27559439 144.05685369 130.28226548 155.19056463 C130.28616248 161.08095657 130.29526499 166.97123281 130.31719017 172.86158752 C130.33769806 178.41669091 130.34380512 183.97163199 130.33932304 189.52676964 C130.34014189 191.55510531 130.34602164 193.58344695 130.35761642 195.61174965 C130.44044982 210.86241568 129.94779442 226.05929562 123 240 C122.54109375 240.94101562 122.0821875 241.88203125 121.609375 242.8515625 C113.4872782 258.11006474 100.37045178 268.82994613 83.8924675 274.15518379 C71.94353402 277.64516343 59.85678122 277.27235192 47.53417969 277.22705078 C45.37480169 277.22648587 43.21542331 277.22680479 41.05604553 277.22793579 C35.22426342 277.22850718 29.39256439 277.2167876 23.56080151 277.20278788 C17.45494704 277.19024474 11.34909046 277.1891072 5.2432251 277.18673706 C-6.30554047 277.1805328 -17.85426797 277.16413628 -29.40301681 277.14403808 C-42.55660662 277.12164622 -55.71019829 277.11067739 -68.86380243 277.10064721 C-95.90922269 277.0797691 -122.95460921 277.04461367 -150 277 C-152.11571767 255.80068713 -153.52487023 234.60070051 -154.3125 213.3125 C-154.3420032 212.53306817 -154.3715064 211.75363634 -154.40190363 210.95058537 C-155.7527234 174.13025504 -156.743801 140.42760814 -130.35203552 111.78456116 C-125.7712683 107.05064863 -120.93514388 102.66275124 -115.9375 98.375 C-115.12665073 97.67853489 -114.31580147 96.98206978 -113.48038101 96.26449966 C-104.76889058 88.87004688 -95.78166096 81.92124063 -86.24983692 75.61363697 C-80.36808583 71.70760182 -74.91289043 67.3807331 -70.375 61.9375 C-67.73217642 58.78544943 -64.92616397 55.89208928 -62 53 C-60.98196421 51.97245142 -59.96508959 50.94375147 -58.94921875 49.9140625 C-57.86201215 48.81767563 -56.7747721 47.72132192 -55.6875 46.625 C-55.15705078 46.08617187 -54.62660156 45.54734375 -54.08007812 44.9921875 C-51.22612277 42.12114259 -48.31619989 39.38394464 -45.23510742 36.75708008 C-41.17897826 33.22405317 -37.47699056 29.44561635 -33.7890625 25.53515625 C-32.44930732 24.14384183 -31.10811833 22.75390691 -29.765625 21.36523438 C-27.68339602 19.20888631 -25.61012124 17.0466346 -23.55957031 14.86010742 C-21.55511805 12.7280514 -19.51982552 10.62996033 -17.4765625 8.53515625 C-16.5744957 7.55096458 -16.5744957 7.55096458 -15.65420532 6.54689026 C-12.95560723 3.83019904 -11.17260865 2.17457622 -7.30877686 1.59933472 C-4.83536213 1.59240113 -2.45458925 1.7069882 0 2 C0 1.34 0 0.68 0 0 Z " fill="#39A87D" transform="translate(663,506)"/>
<path d="M0 0 C0.33 0.66 0.66 1.32 1 2 C-16.32110003 25.32640978 -41.73540662 39.90465567 -70.31585264 44.56764007 C-77.68300327 45.43222567 -85.08087797 45.26646077 -92.48883057 45.24050903 C-94.35122319 45.24138233 -96.21361557 45.24313559 -98.07600665 45.24568737 C-103.16823291 45.25014048 -108.26037438 45.24218531 -113.35258985 45.23213124 C-118.85345272 45.22346959 -124.35431106 45.22641882 -129.85517883 45.22793579 C-139.37737403 45.22898293 -148.89954175 45.22272424 -158.42173004 45.21146011 C-172.18910098 45.19518484 -185.95645867 45.18999503 -199.72383818 45.18748413 C-222.06215571 45.18311021 -244.40046042 45.16982656 -266.73876953 45.15087891 C-288.43440678 45.13249768 -310.13004011 45.11833651 -331.82568359 45.10986328 C-332.49493638 45.10960023 -333.16418917 45.10933718 -333.85372235 45.10906615 C-340.57489345 45.10642902 -347.29606458 45.1038774 -354.01723574 45.10138843 C-410.34483411 45.08052132 -466.67241627 45.04524256 -523 45 C-523.33 44.34 -523.66 43.68 -524 43 C-523.05388918 42.99902319 -522.10777836 42.99804638 -521.13299751 42.99703997 C-465.03364405 42.93885717 -408.9343292 42.86493218 -352.83502364 42.77101372 C-346.09607065 42.75973575 -339.35711742 42.74860388 -332.61816406 42.73754883 C-331.947577 42.73644626 -331.27698993 42.7353437 -330.58608204 42.73420772 C-308.87211 42.69857447 -287.15813949 42.67257871 -265.44414875 42.65161031 C-242.48615924 42.62938807 -219.52820341 42.59612149 -196.57024574 42.55129844 C-182.82472812 42.52481628 -169.07925694 42.50709559 -155.33371508 42.50065396 C-145.90231881 42.49538959 -136.47098094 42.47913734 -127.03961599 42.45433434 C-121.60178986 42.4403554 -116.16406819 42.43113506 -110.72622299 42.43499184 C-105.73902346 42.4384216 -100.75204637 42.42792548 -95.76489234 42.40676448 C-93.96920323 42.40152993 -92.17349082 42.40122623 -90.37780213 42.40660437 C-75.77739399 42.44584834 -61.92221025 41.07059583 -48.1875 35.6875 C-47.38618652 35.38046143 -46.58487305 35.07342285 -45.75927734 34.75708008 C-27.46302009 27.59082989 -12.05136846 15.50256866 0 0 Z " fill="#0D3A73" transform="translate(810,780)"/>
<path d="M0 0 C0.66 0 1.32 0 2 0 C2.50512244 1.60256108 3.00391627 3.20711792 3.5 4.8125 C3.7784375 5.70582031 4.056875 6.59914063 4.34375 7.51953125 C5 10 5 10 5 13 C5.66 13.33 6.32 13.66 7 14 C7.68687313 15.41834842 8.32398935 16.86091065 8.9375 18.3125 C14.41900906 29.56571565 24.96384993 39.81325083 36.625 44.4375 C37.40875 44.623125 38.1925 44.80875 39 45 C39 45.66 39 46.32 39 47 C39.67546875 47.13277344 40.3509375 47.26554688 41.046875 47.40234375 C41.93890625 47.57894531 42.8309375 47.75554688 43.75 47.9375 C44.63171875 48.11152344 45.5134375 48.28554688 46.421875 48.46484375 C47.9074365 48.7732103 49.38909227 49.10797285 50.85107422 49.51367188 C55.26909503 50.51352389 59.8627341 50.40267482 64.375 50.5625 C66.10762085 50.6251001 66.10762085 50.6251001 67.87524414 50.68896484 C78.72825328 51.03557075 89.57951381 51.10938869 100.4375 51.125 C101.70397369 51.12888229 101.70397369 51.12888229 102.99603271 51.13284302 C105.41276281 51.13869644 107.82936266 51.13712057 110.24609375 51.1328125 C111.33350609 51.13578087 111.33350609 51.13578087 112.44288635 51.1388092 C115.79567197 51.12336019 118.77981515 50.93176329 122 50 C125.32857927 49.87671929 128.38924028 49.88561882 131.66723633 50.49951172 C135.78943308 51.11855086 139.78760277 51.14321932 143.94921875 51.1328125 C145.2291143 51.13424759 145.2291143 51.13424759 146.53486633 51.13571167 C148.33598911 51.13638998 150.13711438 51.13456012 151.93823242 51.13037109 C154.66135315 51.12505108 157.38430645 51.13031084 160.10742188 51.13671875 C170.51878216 51.17831529 170.51878216 51.17831529 180.89453125 50.4296875 C184.6192911 50.01419045 188.01907001 50.11239453 191.74682617 50.47119141 C201.60386755 51.22110919 211.45017355 51.08926146 221.33033752 51.04673767 C228.38426122 51.01818269 235.438216 51.01127473 242.4921875 51.00390625 C243.6923681 51.00246502 243.6923681 51.00246502 244.91679478 51.00099468 C269.46826304 50.9739472 294.01944198 51.09588935 318.57062149 51.20170593 C322.53181131 51.21875242 326.49300204 51.23556913 330.45419312 51.25231934 C344.63501122 51.31236958 358.81582276 51.37381995 372.99663031 51.4363091 C383.465687 51.48243679 393.93474638 51.52789671 404.40380859 51.57275391 C405.44942505 51.5772344 405.44942505 51.5772344 406.51616508 51.58180541 C410.01603746 51.5967989 413.5159099 51.61178106 417.01578236 51.62675762 C445.67719592 51.74941918 474.33860073 51.87404517 503 52 C503 52.33 503 52.66 503 53 C415.77601965 53.87166873 328.54757456 54.14950833 226.23529148 54.2764225 C222.87637391 54.27996519 219.51745636 54.28353129 216.15853882 54.28710938 C215.32742542 54.28798276 214.49631202 54.28885614 213.64001336 54.28975599 C201.02231927 54.30328401 188.40468069 54.32810711 175.78701782 54.35888672 C161.21053732 54.39439707 146.63411556 54.41535962 132.05759043 54.41782683 C124.47967129 54.41947776 116.90188976 54.42752355 109.32401085 54.45334816 C102.95198047 54.47505855 96.58011747 54.48311868 90.20805413 54.47346855 C86.98243267 54.46899079 83.75722623 54.4729008 80.53163874 54.49028873 C56.793503 54.61111684 36.19164224 51.85589228 18 35 C16.95585937 34.03707031 16.95585937 34.03707031 15.890625 33.0546875 C9.39394944 26.43210737 5.8664501 18.30469917 2 10 C1.5978125 9.24847656 1.195625 8.49695313 0.78125 7.72265625 C-0.38173479 5.15827478 -0.12592554 2.77036191 0 0 Z " fill="#133D92" transform="translate(233,731)"/>
<path d="M0 0 C0.33 0 0.66 0 1 0 C1 142.56 1 285.12 1 432 C0.34 432.33 -0.32 432.66 -1 433 C-1.15053972 380.42083883 -1.29557105 327.84166494 -1.4332476 275.26246843 C-1.44951797 269.05054851 -1.4658338 262.83862871 -1.48217773 256.62670898 C-1.48543066 255.39006313 -1.48868358 254.15341728 -1.49203508 252.87929731 C-1.54476712 232.87364061 -1.60117892 212.8679959 -1.6589582 192.86235321 C-1.71819296 172.32430526 -1.77345567 151.78624937 -1.82505554 131.24818081 C-1.85700227 118.58209922 -1.8920219 105.91603387 -1.93101191 93.24997198 C-1.95747632 84.55634232 -1.98007149 75.86270788 -1.99967117 67.16906006 C-2.01108028 62.1584573 -2.02415006 57.14787394 -2.04183006 52.13728905 C-2.05801621 47.53933488 -2.06928382 42.94139445 -2.07683109 38.34341823 C-2.08037852 36.69036273 -2.08564715 35.03730971 -2.09292836 33.38426644 C-2.12862132 25.05800736 -2.01655599 16.76530407 -1.55735683 8.45004177 C-1.51844411 7.71601265 -1.47953138 6.98198354 -1.43943948 6.22571111 C-1.12373794 1.12373794 -1.12373794 1.12373794 0 0 Z " fill="#053069" transform="translate(193,287)"/>
<path d="M0 0 C15.06663085 2.07815598 27.34704045 12.19764159 37.0546875 23.36328125 C51.08505836 41.91454939 52.15744364 62.55370615 52.11352539 84.86181641 C52.11324301 86.87311807 52.11340226 88.88441983 52.1139679 90.89572144 C52.11425387 96.33298149 52.10838953 101.77021932 52.10139394 107.20747423 C52.09512703 112.8982739 52.09455396 118.58907412 52.09336853 124.27987671 C52.09026504 135.04600263 52.08206491 145.81211836 52.07201904 156.5782398 C52.06082737 168.83942205 52.05533976 181.1006048 52.05032361 193.3617909 C52.03988146 218.57453291 52.02230108 243.78726588 52 269 C48.70452197 270.64773901 45.04092836 270.12895725 41.41943359 270.11352539 C40.53156662 270.11367142 39.64369965 270.11381744 38.72892761 270.1139679 C35.78540631 270.11326955 32.84194779 270.10548081 29.8984375 270.09765625 C27.86105382 270.09579179 25.82366969 270.09436802 23.7862854 270.09336853 C18.41702034 270.08954555 13.04778223 270.07971711 7.67852783 270.06866455 C2.2023556 270.05844574 -3.27382098 270.0538699 -8.75 270.04882812 C-19.50001185 270.03809467 -30.25000369 270.02102085 -41 270 C-37.1637222 267.44248147 -34.11036847 267.77331017 -29.6730957 267.86474609 C-28.39959763 267.87893837 -28.39959763 267.87893837 -27.10037231 267.89341736 C-24.2919572 267.92711625 -21.48398164 267.97522572 -18.67578125 268.0234375 C-16.72951916 268.04960244 -14.78324481 268.07486962 -12.83695984 268.09927368 C-7.71251929 268.16594603 -2.5883363 268.24483433 2.53588867 268.32623291 C7.76405953 268.40713206 12.99238156 268.47652521 18.22070312 268.546875 C28.48064998 268.68663 38.74036156 268.83928555 49 269 C49.04680275 242.79115659 49.08202933 216.58231949 49.10362434 190.37344265 C49.11391955 178.20313046 49.12794623 166.0328443 49.15087891 153.86254883 C49.17086662 143.25003814 49.18372918 132.63754631 49.18817699 122.02501732 C49.19077527 116.41022885 49.19684557 110.79549431 49.21146011 105.18072319 C49.22512918 99.88583164 49.22920395 94.59101577 49.22621536 89.29610825 C49.22676138 87.36249822 49.23068287 85.42888542 49.23841095 83.49529076 C49.2803249 72.45819388 48.76870985 61.90349457 47 51 C46.66316601 48.66716944 46.32888335 46.33396472 46 44 C45.01 44 44.02 44 43 44 C43.33 43.01 43.66 42.02 44 41 C40.3897504 31.99962251 34.85737927 24.78519633 28 18 C27.40960937 17.37609375 26.81921875 16.7521875 26.2109375 16.109375 C19.48517055 9.5317527 9.16622061 4.06580481 0 2 C0 1.34 0 0.68 0 0 Z " fill="#0C3A73" transform="translate(742,238)"/>
<path d="M0 0 C0.33 0.66 0.66 1.32 1 2 C1.61886802 1.99907821 2.23773603 1.99815641 2.87535763 1.99720669 C133.62489093 1.8058206 133.62489093 1.8058206 186.91637039 2.34743118 C189.75037189 2.37500362 192.58438291 2.39880082 195.41842651 2.42160034 C199.79069678 2.45743456 204.16273727 2.50327271 208.53481102 2.55800056 C210.10129613 2.57633388 211.66782136 2.59155788 213.23436928 2.60336113 C215.33454481 2.62003566 217.43419476 2.64885697 219.53417969 2.68115234 C221.27716339 2.70113785 221.27716339 2.70113785 223.05535889 2.7215271 C225.90365662 2.99088887 227.58589981 3.51744315 230 5 C166.3697691 6.68106849 166.3697691 6.68106849 151 5 C150.67 5.66 150.34 6.32 150 7 C150 6.34 150 5.68 150 5 C148.47862427 5.05329468 148.47862427 5.05329468 146.92651367 5.10766602 C143.16399134 5.23802348 139.40126198 5.3611875 135.63842773 5.48217773 C134.00978145 5.53555204 132.3811979 5.59087782 130.75268555 5.64819336 C128.41208422 5.73023211 126.07134712 5.80525361 123.73046875 5.87890625 C122.63813179 5.91945885 122.63813179 5.91945885 121.52372742 5.96083069 C118.36954376 6.05398179 116.02200236 6.00733412 113 5 C111.21285166 4.9061632 109.42242142 4.86929469 107.6328125 4.8671875 C106.58222656 4.86589844 105.53164063 4.86460937 104.44921875 4.86328125 C103.35222656 4.86714844 102.25523437 4.87101563 101.125 4.875 C100.03574219 4.87113281 98.94648437 4.86726562 97.82421875 4.86328125 C96.77105469 4.86457031 95.71789062 4.86585938 94.6328125 4.8671875 C93.67262207 4.86831543 92.71243164 4.86944336 91.72314453 4.87060547 C89.06170431 4.9190598 89.06170431 4.9190598 86.76220703 5.5 C82.57446613 6.25804255 78.41895108 6.14192954 74.171875 6.1328125 C73.20172958 6.13422241 72.23158417 6.13563232 71.23204041 6.13708496 C68.07132335 6.13922204 64.91070692 6.13292418 61.75 6.125 C60.67819489 6.1234491 59.60638977 6.12189819 58.50210571 6.12030029 C44.56104272 6.09658147 30.62404044 5.99128551 16.6875 5.625 C15.99563599 5.60971252 15.30377197 5.59442505 14.59094238 5.57867432 C12.66843328 5.53416804 10.74629139 5.47455081 8.82421875 5.4140625 C7.23226685 5.36693115 7.23226685 5.36693115 5.6081543 5.31884766 C3 5 3 5 0 3 C0 2.01 0 1.02 0 0 Z " fill="#194C85" transform="translate(511,233)"/>
<path d="M0 0 C0.04674316 27.5990356 0.08200022 55.19806526 0.10362434 82.79713249 C0.11393215 95.6121643 0.12798305 108.42717149 0.15087891 121.2421875 C0.17082791 132.41315704 0.18372004 143.58410875 0.18817699 154.7550956 C0.19078179 160.66874214 0.19689401 166.58233769 0.21146011 172.49596786 C0.22506783 178.06580275 0.22921617 183.63556579 0.22621536 189.20541573 C0.2267641 191.24594196 0.23072246 193.28647068 0.23841095 195.3269825 C0.24842213 198.12179251 0.24594647 200.91633437 0.24050903 203.71115112 C0.24633472 204.5107947 0.2521604 205.31043827 0.25816262 206.13431346 C0.22781632 211.94031209 -0.69701916 217.34844836 -2 223 C-2.33 223 -2.66 223 -3 223 C-2.67 150.07 -2.34 77.14 -2 2 C-4.31 2.66 -6.62 3.32 -9 4 C-9.495 3.505 -9.495 3.505 -10 3 C-12.55499309 2.87497358 -15.08430642 2.81395823 -17.64086914 2.79467773 C-18.44080795 2.78477814 -19.24074677 2.77487854 -20.06492615 2.76467896 C-22.72163892 2.73297082 -25.3783696 2.70826992 -28.03515625 2.68359375 C-29.87219215 2.66303225 -31.70922324 2.642036 -33.54624939 2.62062073 C-38.39104318 2.56531696 -43.23588025 2.51594445 -48.08074951 2.46777344 C-53.02066925 2.41761889 -57.96052583 2.36190134 -62.90039062 2.30664062 C-72.60020651 2.19895754 -82.30007714 2.09753527 -92 2 C-92 1.67 -92 1.34 -92 1 C-80.15234477 0.8695519 -68.30468891 0.73916236 -56.4570322 0.60884857 C-50.95629914 0.54834349 -45.45556631 0.48781788 -39.95483398 0.42724609 C-34.65103647 0.36884362 -29.34723837 0.31049409 -24.04343987 0.25218201 C-22.01514604 0.22987269 -19.98685243 0.20754395 -17.95855904 0.18519592 C-15.12805358 0.15401225 -12.2975474 0.12289622 -9.46704102 0.09179688 C-8.61971909 0.08244614 -7.77239716 0.0730954 -6.8993988 0.0634613 C-1.11405216 0 -1.11405216 0 0 0 Z " fill="#4BC680" transform="translate(793,507)"/>
<path d="M0 0 C0.66 0 1.32 0 2 0 C2.50512244 1.60256108 3.00391627 3.20711792 3.5 4.8125 C3.7784375 5.70582031 4.056875 6.59914063 4.34375 7.51953125 C5 10 5 10 5 13 C5.66 13.33 6.32 13.66 7 14 C7.68687313 15.41834842 8.32398935 16.86091065 8.9375 18.3125 C14.41900906 29.56571565 24.96384993 39.81325083 36.625 44.4375 C37.40875 44.623125 38.1925 44.80875 39 45 C39 45.66 39 46.32 39 47 C39.67546875 47.13277344 40.3509375 47.26554688 41.046875 47.40234375 C41.93890625 47.57894531 42.8309375 47.75554688 43.75 47.9375 C44.63171875 48.11152344 45.5134375 48.28554688 46.421875 48.46484375 C47.9074365 48.7732103 49.38909227 49.10797285 50.85107422 49.51367188 C55.26909503 50.51352389 59.8627341 50.40267482 64.375 50.5625 C66.10762085 50.6251001 66.10762085 50.6251001 67.87524414 50.68896484 C78.72825328 51.03557075 89.57951381 51.10938869 100.4375 51.125 C101.70397369 51.12888229 101.70397369 51.12888229 102.99603271 51.13284302 C105.41276281 51.13869644 107.82936266 51.13712057 110.24609375 51.1328125 C111.33350609 51.13578087 111.33350609 51.13578087 112.44288635 51.1388092 C115.79567197 51.12336019 118.77981515 50.93176329 122 50 C125.32857927 49.87671929 128.38924028 49.88561882 131.66723633 50.49951172 C135.78943308 51.11855086 139.78760277 51.14321932 143.94921875 51.1328125 C145.2291143 51.13424759 145.2291143 51.13424759 146.53486633 51.13571167 C148.33598911 51.13638998 150.13711438 51.13456012 151.93823242 51.13037109 C154.66135315 51.12505108 157.38430645 51.13031084 160.10742188 51.13671875 C168.06935162 51.13877335 175.88744958 51.03020189 183.81030273 50.16015625 C187.03389857 49.92437981 190.01938888 50.35838291 193.1875 50.9375 C194.29480469 51.13214844 195.40210938 51.32679688 196.54296875 51.52734375 C197.75919922 51.76130859 197.75919922 51.76130859 199 52 C199 52.33 199 52.66 199 53 C167.87915528 53.82358091 136.75226225 54.17540853 105.62133789 54.28710938 C101.68111767 54.30187994 97.74113699 54.32622186 93.80102539 54.35888672 C89.07568011 54.39744122 84.3506592 54.41545055 79.62516212 54.41895103 C77.87498658 54.42341827 76.12481198 54.43460877 74.37473106 54.45334816 C53.1272285 54.6689911 34.02521631 49.84853959 18 35 C16.95585937 34.03707031 16.95585937 34.03707031 15.890625 33.0546875 C9.39394944 26.43210737 5.8664501 18.30469917 2 10 C1.5978125 9.24847656 1.195625 8.49695313 0.78125 7.72265625 C-0.38173479 5.15827478 -0.12592554 2.77036191 0 0 Z " fill="#0E4385" transform="translate(233,731)"/>
<path d="M0 0 C0.99 0.33 1.98 0.66 3 1 C-5.10546875 9.10546875 -5.10546875 9.10546875 -6.57202148 10.57177734 C-7.9183828 11.91836885 -9.26390605 13.26579812 -10.609375 14.61328125 C-12.10019005 16.10166033 -13.59552418 17.58554332 -15.09765625 19.0625 C-17.90440406 21.8301877 -20.62459147 24.52220733 -23.0625 27.625 C-25.29173464 30.3576102 -27.7807413 32.45160804 -30.51171875 34.66796875 C-32.12882545 35.95079945 -32.12882545 35.95079945 -33 38 C-33.66 38 -34.32 38 -35 38 C-35 38.66 -35 39.32 -35 40 C-36.875 42.125 -36.875 42.125 -39 44 C-39.66 44 -40.32 44 -41 44 C-41.268125 44.639375 -41.53625 45.27875 -41.8125 45.9375 C-43 48 -43 48 -46 49 C-46.6987646 50.31679545 -47.36184656 51.65278717 -48 53 C-49.55078125 54.74609375 -49.55078125 54.74609375 -51.3125 56.4375 C-52.17294922 57.27087891 -52.17294922 57.27087891 -53.05078125 58.12109375 C-54.01564453 59.05115234 -54.01564453 59.05115234 -55 60 C-56.66824139 61.66509046 -58.33470263 63.33196516 -60 65 C-66.66666667 71.66666667 -73.33333333 78.33333333 -80 85 C-81.07012329 86.13199829 -81.07012329 86.13199829 -82.16186523 87.28686523 C-84 89 -84 89 -86 89 C-86.26280762 89.59329102 -86.52561523 90.18658203 -86.79638672 90.79785156 C-88.05738434 93.10499122 -89.32066575 94.4733325 -91.2578125 96.234375 C-91.88300781 96.80800781 -92.50820313 97.38164063 -93.15234375 97.97265625 C-93.80332031 98.55917969 -94.45429688 99.14570312 -95.125 99.75 C-95.78371094 100.35199219 -96.44242187 100.95398438 -97.12109375 101.57421875 C-98.74268509 103.05480215 -100.36902454 104.52977125 -102 106 C-102 101.3554409 -99.10477492 99.24067755 -96 96 C-94.81613467 94.94603477 -93.61771532 93.90824251 -92.40698242 92.88525391 C-87.36706206 88.51666328 -82.68883232 83.81394553 -77.98828125 79.0859375 C-76.59140327 77.6869371 -76.59140327 77.6869371 -75.16630554 76.25967407 C-72.71162325 73.80121051 -70.25995694 71.33976148 -67.80895996 68.87762451 C-65.31912577 66.37753364 -62.82644083 63.88028865 -60.33398438 61.3828125 C-55.90471495 56.94393687 -51.4773135 52.5032084 -47.05386353 48.05853271 C-45.38116058 46.3820271 -43.70057375 44.71421438 -42.01635742 43.04931641 C-39.93267965 41.01444854 -39.93267965 41.01444854 -38.125 38.5625 C-35.8524634 35.82208821 -33.38467591 33.73473084 -30.65625 31.46875 C-28.83125121 29.93406672 -28.83125121 29.93406672 -27 27.5 C-25.29381805 25.36727256 -23.77217329 23.90238645 -21.6875 22.1875 C-18.29907172 19.37829023 -15.54619479 16.24641056 -12.70703125 12.89453125 C-11.10801784 11.11988251 -9.47922606 9.62519722 -7.625 8.125 C-4.96206806 6.26897191 -4.96206806 6.26897191 -4 4 C-3.34 4 -2.68 4 -2 4 C-1.34 2.68 -0.68 1.36 0 0 Z " fill="#10417D" transform="translate(606,479)"/>
<path d="M0 0 C0.99 0 1.98 0 3 0 C3 43.89 3 87.78 3 133 C2.01 133 1.02 133 0 133 C0 89.11 0 45.22 0 0 Z " fill="#117E5F" transform="translate(511,649)"/>
<path d="M0 0 C15.70734688 -0.04671265 31.41467503 -0.08198523 47.12207413 -0.10362434 C54.41522798 -0.11393864 61.70833868 -0.12800189 69.00146484 -0.15087891 C75.357863 -0.17080811 81.71422991 -0.18371532 88.07065845 -0.18817699 C91.43660268 -0.19078517 94.80245751 -0.19691868 98.16837311 -0.21146011 C101.92512874 -0.22592564 105.68169767 -0.22797999 109.43847656 -0.22705078 C110.55553482 -0.23424133 111.67259308 -0.24143188 112.82350159 -0.24884033 C113.84711288 -0.246091 114.87072418 -0.24334167 115.925354 -0.24050903 C117.25826666 -0.24327441 117.25826666 -0.24327441 118.61810684 -0.24609566 C121.16794456 0.01735192 122.80228816 0.71367263 125 2 C61.3697691 3.68106849 61.3697691 3.68106849 46 2 C45.67 2.66 45.34 3.32 45 4 C45 3.34 45 2.68 45 2 C43.9805127 2.03552979 42.96102539 2.07105957 41.91064453 2.10766602 C38.13509557 2.23784861 34.35934629 2.36107415 30.58349609 2.48217773 C28.94801607 2.53561099 27.31259689 2.5909414 25.67724609 2.64819336 C23.32923506 2.73006761 20.9810911 2.80515983 18.6328125 2.87890625 C17.89942657 2.90594131 17.16604065 2.93297638 16.41043091 2.96083069 C11.22774341 3.11387171 11.22774341 3.11387171 9 2 C7.46331135 1.77532169 5.92031946 1.59203195 4.375 1.4375 C3.55773437 1.35371094 2.74046875 1.26992187 1.8984375 1.18359375 C1.27195312 1.12300781 0.64546875 1.06242188 0 1 C0 0.67 0 0.34 0 0 Z " fill="#1A457A" transform="translate(616,236)"/>
<path d="M0 0 C2.05882953 3.08824429 2.85195791 5.51567225 3.875 9.0625 C12.2623062 36.65552184 29.66957205 57.13130416 55 71 C59.57922135 73.21049324 64.27404423 75.12632562 69 77 C69.9590625 77.38414062 70.918125 77.76828125 71.90625 78.1640625 C72.5971875 78.43992187 73.288125 78.71578125 74 79 C74 79.33 74 79.66 74 80 C67.96297393 79.50704373 63.30831765 78.20103186 57.875 75.5625 C57.14071777 75.20978027 56.40643555 74.85706055 55.64990234 74.49365234 C29.05474919 61.27941913 10.91177746 38.6731505 1 11 C-0.11263584 7.28682478 -0.07453925 3.87604106 0 0 Z " fill="#0F3A72" transform="translate(195,740)"/>
<path d="M0 0 C0.99 0.99 0.99 0.99 2 2 C-6.80841072 10.85469317 -15.62217252 19.70402092 -24.4428606 28.54648495 C-28.53821787 32.65229205 -32.63168877 36.75994412 -36.72094727 40.87182617 C-40.66526739 44.83783176 -44.61441269 48.79897227 -48.56699181 52.75674629 C-50.07625929 54.26971726 -51.58376155 55.78445119 -53.08948708 57.30094719 C-55.19413071 59.42004844 -57.30488879 61.53286911 -59.41723633 63.64428711 C-60.04230072 64.27654205 -60.66736511 64.908797 -61.31137085 65.56021118 C-65.65784352 69.88594784 -65.65784352 69.88594784 -69 71 C-67.72113231 68.19612942 -66.39618952 66.14751465 -64.21591187 63.97540283 C-63.36616539 63.12153236 -63.36616539 63.12153236 -62.49925232 62.25041199 C-61.57028893 61.33223442 -61.57028893 61.33223442 -60.62255859 60.39550781 C-59.96877731 59.74143448 -59.31499603 59.08736115 -58.6414032 58.41346741 C-56.48178862 56.25524486 -54.3151788 54.10419064 -52.1484375 51.953125 C-50.64870384 50.45712191 -49.14941147 48.96067631 -47.65054321 47.46380615 C-43.70610188 43.52699775 -39.75569106 39.59623266 -35.80401611 35.66668701 C-31.77197847 31.65511502 -27.74560286 27.63786906 -23.71875 23.62109375 C-15.81803787 15.74182555 -7.9110091 7.86892875 0 0 Z " fill="#2DA778" transform="translate(582,578)"/>
<path d="M0 0 C0.33 0 0.66 0 1 0 C1.76184844 24.34065241 2.14807459 48.64742519 2 73 C-1.29547803 74.64773901 -4.95907164 74.12895725 -8.58056641 74.11352539 C-9.46843338 74.11367142 -10.35630035 74.11381744 -11.27107239 74.1139679 C-14.21459369 74.11326955 -17.15805221 74.10548081 -20.1015625 74.09765625 C-22.13894618 74.09579179 -24.17633031 74.09436802 -26.2137146 74.09336853 C-31.58297966 74.08954555 -36.95221777 74.07971711 -42.32147217 74.06866455 C-47.7976444 74.05844574 -53.27382098 74.0538699 -58.75 74.04882812 C-69.50001185 74.03809467 -80.25000369 74.02102085 -91 74 C-87.1637222 71.44248147 -84.11036847 71.77331017 -79.6730957 71.86474609 C-78.82409698 71.87420761 -77.97509827 71.88366913 -77.10037231 71.89341736 C-74.2919572 71.92711625 -71.48398164 71.97522572 -68.67578125 72.0234375 C-66.72951916 72.04960244 -64.78324481 72.07486962 -62.83695984 72.09927368 C-57.71251929 72.16594603 -52.5883363 72.24483433 -47.46411133 72.32623291 C-42.23594047 72.40713206 -37.00761844 72.47652521 -31.77929688 72.546875 C-21.51935002 72.68663 -11.25963844 72.83928555 -1 73 C-1.00261841 72.08328522 -1.00523682 71.16657043 -1.00793457 70.22207642 C-1.0515204 52.59836585 -1.0346225 34.9924261 -0.5 17.375 C-0.45138759 15.65105389 -0.40321247 13.92709539 -0.35546875 12.203125 C-0.2419223 8.13525863 -0.12280524 4.06759692 0 0 Z " fill="#064857" transform="translate(792,434)"/>
<path d="M0 0 C0.33 0 0.66 0 1 0 C1.09796875 0.92941406 1.1959375 1.85882812 1.296875 2.81640625 C1.44640625 4.05261719 1.5959375 5.28882813 1.75 6.5625 C1.88921875 7.78066406 2.0284375 8.99882813 2.171875 10.25390625 C3.68309119 17.09002098 7.24536748 21.62225831 12.13574219 26.47631836 C12.63375839 26.97477264 13.1317746 27.47322693 13.6448822 27.98678589 C15.27186251 29.61169746 16.90916164 31.22575673 18.546875 32.83984375 C19.68524675 33.97261273 20.82295238 35.10605148 21.96002197 36.24012756 C24.93885235 39.20756286 27.92658383 42.16587344 30.9163208 45.12231445 C33.9718239 48.14700114 37.01873786 51.18031347 40.06640625 54.21289062 C46.03594273 60.15035723 52.01491938 66.0782027 58 72 C57.01 72.33 56.02 72.66 55 73 C48.40760422 66.50054391 41.82626225 59.9901487 35.25852585 53.46577454 C32.20806957 50.4361366 29.15402964 47.4103091 26.09130859 44.39306641 C23.13225198 41.47767275 20.1832557 38.55243602 17.24079132 35.62030029 C16.12003877 34.50690249 14.99578833 33.39701361 13.86791229 32.29083252 C-0.5340078 18.15486355 -0.5340078 18.15486355 -1.1328125 7.67578125 C-1.13023437 6.89589844 -1.12765625 6.11601563 -1.125 5.3125 C-1.12757813 4.52488281 -1.13015625 3.73726562 -1.1328125 2.92578125 C-1 1 -1 1 0 0 Z " fill="#12407B" transform="translate(364,550)"/>
<path d="M0 0 C21.67849276 1.25068227 42.20900257 18.61064031 56 34 C64.04296899 44.10259476 75.79158371 60.54307696 75 74 C73.13275778 71.19913666 71.99197764 68.52956727 70.79345703 65.40283203 C59.96135294 37.36788836 39.24809244 17.21874286 12 5 C8.03883205 3.52052763 4.0553688 2.19581388 0 1 C0 0.67 0 0.34 0 0 Z " fill="#0F3C76" transform="translate(753,201)"/>
<path d="M0 0 C0.66 0 1.32 0 2 0 C2.50512244 1.60256108 3.00391627 3.20711792 3.5 4.8125 C3.7784375 5.70582031 4.056875 6.59914063 4.34375 7.51953125 C5 10 5 10 5 13 C5.66 13.33 6.32 13.66 7 14 C7.68687313 15.41834842 8.32398935 16.86091065 8.9375 18.3125 C14.41900906 29.56571565 24.96384993 39.81325083 36.625 44.4375 C37.40875 44.623125 38.1925 44.80875 39 45 C39 45.66 39 46.32 39 47 C39.67546875 47.13277344 40.3509375 47.26554688 41.046875 47.40234375 C41.93890625 47.57894531 42.8309375 47.75554688 43.75 47.9375 C44.63171875 48.11152344 45.5134375 48.28554688 46.421875 48.46484375 C47.92434499 48.7767201 49.4227527 49.11403483 50.90429688 49.51367188 C53.00812938 50.0018865 54.95484325 50.20215078 57.109375 50.31640625 C57.86347656 50.35830078 58.61757813 50.40019531 59.39453125 50.44335938 C60.17183594 50.48267578 60.94914062 50.52199219 61.75 50.5625 C62.54277344 50.60568359 63.33554687 50.64886719 64.15234375 50.69335938 C66.10137815 50.79902991 68.05066748 50.89997966 70 51 C70.33 51.66 70.66 52.32 71 53 C50.44474239 53.65757341 33.46211287 49.3267829 18 35 C16.95585937 34.03707031 16.95585937 34.03707031 15.890625 33.0546875 C9.39394944 26.43210737 5.8664501 18.30469917 2 10 C1.5978125 9.24847656 1.195625 8.49695313 0.78125 7.72265625 C-0.38173479 5.15827478 -0.12592554 2.77036191 0 0 Z " fill="#113F79" transform="translate(233,731)"/>
<path d="M0 0 C-1.07636719 0.53367188 -2.15273438 1.06734375 -3.26171875 1.6171875 C-30.73924269 15.51557387 -47.70070719 34.93150217 -60 63 C-61.55379293 58.31141848 -59.62784293 55.16425912 -57.5625 50.9375 C-57.02085205 49.80501831 -57.02085205 49.80501831 -56.46826172 48.6496582 C-53.70260639 43.03637117 -50.54188644 38.11988379 -46.6640625 33.19921875 C-44.96263963 31.12209575 -44.96263963 31.12209575 -44.0859375 28.95703125 C-42.5755836 26.23513447 -40.46462935 24.88304775 -38 23 C-36.18054097 21.27815725 -34.36854512 19.54840744 -32.5625 17.8125 C-25.58673739 11.28014943 -9.80345823 -3.2107396 0 0 Z " fill="#0F3D76" transform="translate(259,206)"/>
<path d="M0 0 C0.495 0.99 0.495 0.99 1 2 C-14.42506853 22.77301493 -36.7143252 37.25469062 -62 43 C-65.99947146 43.53086348 -69.96883462 43.85473278 -74 44 C-74 43.34 -74 42.68 -74 42 C-72.59814453 41.79697266 -72.59814453 41.79697266 -71.16796875 41.58984375 C-42.5988176 37.05874467 -17.80253244 22.90071725 0 0 Z " fill="#123E76" transform="translate(810,780)"/>
<path d="M0 0 C3.48972003 1.49530324 5.73465395 3.49191662 8.40136719 6.17431641 C9.2619574 7.03505768 10.12254761 7.89579895 11.00921631 8.78262329 C11.92914368 9.71287323 12.84907104 10.64312317 13.796875 11.6015625 C14.75479097 12.56321086 15.71315114 13.52441694 16.67193604 14.48519897 C19.18835125 17.00923282 21.69870107 19.53921591 24.20782471 22.07049561 C26.77162441 24.6547919 29.34112918 27.23340199 31.91015625 29.8125 C36.94569457 34.86945697 41.9748456 39.93272256 47 45 C46.67 45.99 46.34 46.98 46 48 C39.9964873 42.04275371 33.99833953 36.08017966 28.0070343 30.11065865 C25.225096 27.33917374 22.44132118 24.56958641 19.65332031 21.80419922 C16.964644 19.13719592 14.28083114 16.46538804 11.60037231 13.7901268 C10.57501238 12.76847261 9.54788898 11.74858522 8.51901245 10.73047256 C7.08228765 9.30818854 5.65229615 7.87911243 4.22265625 6.44970703 C3.40547119 5.6369632 2.58828613 4.82421936 1.74633789 3.98684692 C0 2 0 2 0 0 Z " fill="#144881" transform="translate(424,553)"/>
<path d="M0 0 C0.33 0.66 0.66 1.32 1 2 C2.485 1.87625 2.485 1.87625 4 1.75 C8.00798277 1.72556108 10.75230616 3.10178684 14.203125 5.02734375 C16.14043364 6.14320533 16.14043364 6.14320533 19 7 C24.85527243 14.42015594 28.42751211 21.44735639 27.875 31 C27.24930733 35.99009215 25.49109884 39.66066654 23 44 C22.34 44 21.68 44 21 44 C21.28875 43.360625 21.5775 42.72125 21.875 42.0625 C24.56207901 34.74767382 26.07219499 27.6863977 24 20 C21.02521074 13.99393814 17.1455966 8.56344172 10.7109375 6.13671875 C5.84602636 4.58612018 1.07136326 3.55123514 -4 3 C-2.68 2.01 -1.36 1.02 0 0 Z " fill="#123F77" transform="translate(703,393)"/>
<path d="M0 0 C1.20914063 0.19464844 2.41828125 0.38929688 3.6640625 0.58984375 C4.55867188 0.74582031 5.45328125 0.90179687 6.375 1.0625 C6.375 1.3925 6.375 1.7225 6.375 2.0625 C-0.9359749 2.08574056 -8.24694175 2.10347456 -15.55794621 2.11431217 C-18.9532763 2.11951547 -22.348581 2.12656641 -25.74389648 2.13793945 C-29.65347991 2.15095213 -33.56305329 2.15574932 -37.47265625 2.16015625 C-38.68333267 2.16531754 -39.89400909 2.17047882 -41.14137268 2.17579651 C-46.74322174 2.17616745 -52.11010743 2.07960527 -57.625 1.0625 C-57.625 0.7325 -57.625 0.4025 -57.625 0.0625 C-56.46564941 0.06773682 -55.30629883 0.07297363 -54.11181641 0.07836914 C-49.76937649 0.09660608 -45.42693988 0.1079997 -41.08447266 0.11743164 C-39.21272205 0.12242942 -37.34097529 0.12922988 -35.46923828 0.13793945 C-32.76333665 0.15020621 -30.05748708 0.155774 -27.3515625 0.16015625 C-26.11655502 0.16789818 -26.11655502 0.16789818 -24.8565979 0.17579651 C-19.80391732 0.17627351 -14.88217567 -0.14917243 -9.86499023 -0.75537109 C-6.43073643 -1.03460307 -3.39990234 -0.56665039 0 0 Z " fill="#1D4E85" transform="translate(425.625,781.9375)"/>
<path d="M0 0 C0.99 0.33 1.98 0.66 3 1 C1.88200014 2.33920838 0.75538103 3.67122556 -0.375 5 C-1.31472656 6.11375 -1.31472656 6.11375 -2.2734375 7.25 C-2.84320312 7.8275 -3.41296875 8.405 -4 9 C-4.66 9 -5.32 9 -6 9 C-6 9.66 -6 10.32 -6 11 C-6.680625 11.53625 -7.36125 12.0725 -8.0625 12.625 C-10.55553416 14.64064464 -12.38336875 16.51362513 -14.4375 18.9375 C-17.38977507 22.39790084 -20.44541608 25.17249007 -24 28 C-25.01680311 28.98290968 -26.02738219 29.97334787 -27 31 C-27.33 30.01 -27.66 29.02 -28 28 C-18.76 18.76 -9.52 9.52 0 0 Z " fill="#174984" transform="translate(638,447)"/>
<path d="M0 0 C29.7 0 59.4 0 90 0 C90 0.33 90 0.66 90 1 C87.69 1.66 85.38 2.32 83 3 C82.505 2.505 82.505 2.505 82 2 C79.44500691 1.87497358 76.91569358 1.81395823 74.35913086 1.79467773 C73.55919205 1.78477814 72.75925323 1.77487854 71.93507385 1.76467896 C69.27836108 1.73297082 66.6216304 1.70826992 63.96484375 1.68359375 C62.12780785 1.66303225 60.29077676 1.642036 58.45375061 1.62062073 C53.60895682 1.56531696 48.76411975 1.51594445 43.91925049 1.46777344 C38.97933075 1.41761889 34.03947417 1.36190134 29.09960938 1.30664062 C19.39979349 1.19895754 9.69992286 1.09753527 0 1 C0 0.67 0 0.34 0 0 Z " fill="#4CC389" transform="translate(701,508)"/>
<path d="M0 0 C0.99 0.33 1.98 0.66 3 1 C-4.33333333 8.33333333 -11.66666667 15.66666667 -19 23 C-19.89307861 23.91370361 -20.78615723 24.82740723 -21.70629883 25.76879883 C-24 28 -24 28 -26 29 C-25.5844157 24.53597094 -22.47386326 22.09398929 -19.43359375 19.140625 C-18.88010757 18.59138367 -18.3266214 18.04214233 -17.75636292 17.47625732 C-15.99033441 15.72699536 -14.21415308 13.98846356 -12.4375 12.25 C-11.23694559 11.064495 -10.0370674 9.87830476 -8.83789062 8.69140625 C-5.89970905 5.78626707 -2.95237926 2.89070663 0 0 Z " fill="#174781" transform="translate(668,417)"/>
<path d="M0 0 C-1.45241736 3.33234574 -3.2850086 5.54225606 -5.84375 8.109375 C-6.59527344 8.86347656 -7.34679687 9.61757813 -8.12109375 10.39453125 C-8.90613281 11.17183594 -9.69117188 11.94914062 -10.5 12.75 C-11.28503906 13.54277344 -12.07007813 14.33554687 -12.87890625 15.15234375 C-13.63042969 15.90128906 -14.38195312 16.65023438 -15.15625 17.421875 C-15.84525391 18.10862305 -16.53425781 18.79537109 -17.24414062 19.50292969 C-19 21 -19 21 -21 21 C-21.2475 21.5775 -21.495 22.155 -21.75 22.75 C-23.16683317 25.3002997 -24.87627537 27.01785701 -27 29 C-27.99 28.67 -28.98 28.34 -30 28 C-26.05534383 24.00602615 -22.10425446 20.01857403 -18.14697266 16.03710938 C-16.80076671 14.68082557 -15.45635851 13.32275497 -14.11376953 11.96289062 C-12.18728284 10.01223399 -10.25449117 8.06802606 -8.3203125 6.125 C-7.41709763 5.20630127 -7.41709763 5.20630127 -6.49563599 4.26904297 C-2.22774341 0 -2.22774341 0 0 0 Z " fill="#1A4C7F" transform="translate(686,475)"/>
<path d="M0 0 C-1.60373148 4.00517396 -4.42113986 6.6771098 -7.4453125 9.640625 C-7.97518768 10.16767029 -8.50506287 10.69471558 -9.05099487 11.23773193 C-10.73767825 12.91325675 -12.43119564 14.58167722 -14.125 16.25 C-15.27259388 17.38755851 -16.41973461 18.52557436 -17.56640625 19.6640625 C-20.37238137 22.44803465 -23.18450464 25.2256576 -26 28 C-26.99 27.67 -27.98 27.34 -29 27 C-25.19776083 23.14844023 -21.38908788 19.30340607 -17.57421875 15.46435547 C-16.27651486 14.15657422 -14.98060901 12.84700631 -13.68652344 11.53564453 C-11.82953602 9.65448499 -9.96624438 7.77977878 -8.1015625 5.90625 C-7.52129303 5.31565796 -6.94102356 4.72506592 -6.34317017 4.11657715 C-2.22774341 0 -2.22774341 0 0 0 Z " fill="#16467D" transform="translate(715,446)"/>
<path d="M0 0 C0.66 0.66 1.32 1.32 2 2 C-7.24 11.24 -16.48 20.48 -26 30 C-26.99 29.67 -27.98 29.34 -29 29 C-19.33333333 19.33333333 -9.66666667 9.66666667 0 0 Z " fill="#2FA579" transform="translate(614,546)"/>
<path d="M0 0 C0.66 0 1.32 0 2 0 C2 0.66 2 1.32 2 2 C1.34 2 0.68 2 0 2 C-0.2578125 2.5878125 -0.515625 3.175625 -0.78125 3.78125 C-4.78405852 11.06841423 -12.37120007 14.6408417 -20 17 C-24.47398623 18.18180768 -26.84876806 18.07561597 -31 16 C-31 15.67 -31 15.34 -31 15 C-30.32195312 14.97421875 -29.64390625 14.9484375 -28.9453125 14.921875 C-16.93291342 14.18981744 -10.19192489 10.98229751 -2.03125 2.046875 C-1.3609375 1.37140625 -0.690625 0.6959375 0 0 Z " fill="#16477C" transform="translate(504,654)"/>
<path d="M0 0 C3.86328627 1.5847358 6.28876923 4.05956887 9.203125 7.0078125 C9.6857782 7.49329559 10.1684314 7.97877869 10.66571045 8.47897339 C12.19858562 10.02299866 13.72434004 11.57384824 15.25 13.125 C16.29120361 14.17624009 17.33286541 15.22702657 18.375 16.27734375 C20.92199464 18.84633004 23.46265177 21.42148161 26 24 C25.01 24.33 24.02 24.66 23 25 C19.71809541 21.76743024 16.44273543 18.52842394 13.17333984 15.28320312 C12.05956877 14.17950702 10.94401168 13.07761027 9.82666016 11.97753906 C8.22348763 10.39854926 6.62679089 8.81325886 5.03125 7.2265625 C4.52815308 6.73378815 4.02505615 6.24101379 3.50671387 5.73330688 C2.29925487 4.526244 1.14417071 3.26721404 0 2 C0 1.34 0 0.68 0 0 Z " fill="#14427B" transform="translate(422,624)"/>
<path d="M0 0 C1.65322266 -0.00580078 1.65322266 -0.00580078 3.33984375 -0.01171875 C8.83244562 -0.00512499 14.09133331 0.14584482 19.5 1.125 C19.5 1.785 19.5 2.445 19.5 3.125 C6.45880172 3.23031468 -6.50156173 3.29152651 -19.5 2.125 C-19.5 1.795 -19.5 1.465 -19.5 1.125 C-12.99998788 -0.05172633 -6.59206552 -0.02313005 0 0 Z " fill="#0E3D7E" transform="translate(476.5,781.875)"/>
<path d="M0 0 C0.33 0 0.66 0 1 0 C0.53816839 11.54579037 -5.60579309 24.22721215 -13 33 C-13.99 33 -14.98 33 -16 33 C-15.5153125 32.29359375 -15.030625 31.5871875 -14.53125 30.859375 C-8.18162541 21.13956504 -4.04516165 10.85267444 0 0 Z " fill="#0F3B72" transform="translate(827,745)"/>
<path d="M0 0 C10.65748602 0.27326887 19.06552126 11.83221169 26 19 C25.67 19.99 25.34 20.98 25 22 C24.39696045 21.36553955 24.39696045 21.36553955 23.78173828 20.71826172 C13.74579169 10.02663405 13.74579169 10.02663405 1.66015625 1.8828125 C1.11230469 1.59148438 0.56445312 1.30015625 0 1 C0 0.67 0 0.34 0 0 Z " fill="#134680" transform="translate(397,531)"/>
<path d="M0 0 C0 0.33 0 0.66 0 1 C-0.81484863 0.93433838 -1.62969727 0.86867676 -2.46923828 0.80102539 C-11.93701732 0.07687794 -21.38533556 -0.29811886 -30.875 -0.5625 C-32.35287246 -0.60585222 -33.83073713 -0.64947072 -35.30859375 -0.69335938 C-38.87231179 -0.79862774 -42.43612005 -0.90034466 -46 -1 C-46 -1.33 -46 -1.66 -46 -2 C-42.09003203 -2.17031765 -38.17978022 -2.33052138 -34.26904297 -2.48217773 C-32.30024659 -2.56050107 -30.33175467 -2.64636299 -28.36328125 -2.73242188 C-7.92360462 -3.51058215 -7.92360462 -3.51058215 0 0 Z " fill="#124682" transform="translate(752,200)"/>
<path d="M0 0 C0.33 0 0.66 0 1 0 C1 9.57 1 19.14 1 29 C0.01 28.67 -0.98 28.34 -2 28 C-1.86189095 23.52055965 -1.71322584 19.04153217 -1.5625 14.5625 C-1.52318359 13.28310547 -1.48386719 12.00371094 -1.44335938 10.68554688 C-1.40146484 9.47060547 -1.35957031 8.25566406 -1.31640625 7.00390625 C-1.27974854 5.87799072 -1.24309082 4.7520752 -1.20532227 3.59204102 C-1 1 -1 1 0 0 Z " fill="#0A3770" transform="translate(193,287)"/>
<path d="M0 0 C0.66 0.33 1.32 0.66 2 1 C0.625 3 0.625 3 -1 5 C-1.66 5 -2.32 5 -3 5 C-3.309375 5.8353125 -3.309375 5.8353125 -3.625 6.6875 C-5.1692307 9.28461527 -7.06179892 10.78503297 -9.41796875 12.63671875 C-11.04457914 14.03841511 -12.30009685 15.50163252 -13.625 17.1875 C-15.75350346 19.7080962 -16.97159306 20.8783678 -20 22 C-17.28383751 15.8886344 -12.89308231 11.96288419 -7.8984375 7.7109375 C-5.64203499 5.67738956 -3.84186563 3.40859351 -2 1 C-1.34 0.67 -0.68 0.34 0 0 Z " fill="#0F3E7A" transform="translate(500,586)"/>
<path d="M0 0 C-0.33 0.66 -0.66 1.32 -1 2 C-1.969375 2.185625 -2.93875 2.37125 -3.9375 2.5625 C-9.81493293 4.06209194 -13.73884866 8.94176063 -18 13 C-19.97321656 14.70360876 -21.97989054 16.35201596 -24 18 C-24 15 -24 15 -22.0625 12.8125 C-21.05117836 11.86474714 -20.02855719 10.9290194 -19 10 C-17.91332031 8.99453125 -17.91332031 8.99453125 -16.8046875 7.96875 C-7.67347059 -0.34879412 -7.67347059 -0.34879412 0 0 Z " fill="#13427C" transform="translate(698,396)"/>
<path d="M0 0 C0.99 0.845625 1.98 1.69125 3 2.5625 C3.63808594 3.10648438 4.27617187 3.65046875 4.93359375 4.2109375 C6.31565886 5.40750805 7.68295472 6.6213446 9.03515625 7.8515625 C12.84775197 11.30420217 16.25583028 13.98372787 21 16 C18.50935112 16.68707555 16.62113708 17 14 17 C12.79110441 15.89184571 11.59223354 14.76863682 10.47265625 13.5703125 C8.19194931 11.13836505 5.75832417 8.86141621 3.35546875 6.55078125 C2 5 2 5 2 3 C1.34 3 0.68 3 0 3 C0 2.01 0 1.02 0 0 Z " fill="#15447B" transform="translate(451,652)"/>
<path d="M0 0 C0 0.33 0 0.66 0 1 C-7.06888778 1.85214779 -14.0088832 2.12746455 -21.125 2.0625 C-22.08148438 2.05798828 -23.03796875 2.05347656 -24.0234375 2.04882812 C-26.34902758 2.03720017 -28.6744776 2.02086102 -31 2 C-31 1.34 -31 0.68 -31 0 C-29.95199219 0.01160156 -28.90398437 0.02320313 -27.82421875 0.03515625 C-26.44531428 0.04453655 -25.06640789 0.0536365 -23.6875 0.0625 C-22.99720703 0.07087891 -22.30691406 0.07925781 -21.59570312 0.08789062 C-14.05438495 0.12432211 -7.58104914 -1.89526229 0 0 Z " fill="#21538A" transform="translate(367,782)"/>
<path d="M0 0 C-1.01320313 0.56267578 -1.01320313 0.56267578 -2.046875 1.13671875 C-9.50613007 5.41608907 -13.33692245 9.12438327 -17 17 C-17.96755422 14.44496161 -18.1589889 13.37186106 -17.06640625 10.81640625 C-13.20099469 5.02330893 -7.78718648 -2.7341677 0 0 Z " fill="#0E3A76" transform="translate(383,532)"/>
<path d="M0 0 C0.33 0 0.66 0 1 0 C1.21203451 5.83094895 0.96947414 11.44413776 -1 17 C-1.66 17.33 -2.32 17.66 -3 18 C-2.57045059 11.74892565 -1.98598493 5.95795479 0 0 Z " fill="#0F3D75" transform="translate(831,726)"/>
<path d="M0 0 C2 1 2 1 3.1875 3 C4.31458189 7.16153312 3.67871306 10.79014465 3 15 C2.67 15 2.34 15 2 15 C0.53329887 9.77487721 -0.22577402 5.4185766 0 0 Z " fill="#0E3D76" transform="translate(828,276)"/>
<path d="M0 0 C0.33 0.99 0.66 1.98 1 3 C0.34 3 -0.32 3 -1 3 C-1.2475 3.5775 -1.495 4.155 -1.75 4.75 C-3.16683317 7.3002997 -4.87627537 9.01785701 -7 11 C-7.99 10.67 -8.98 10.34 -10 10 C-6.7 6.7 -3.4 3.4 0 0 Z " fill="#154479" transform="translate(666,493)"/>
<path d="M0 0 C0.33 0 0.66 0 1 0 C1.33 5.94 1.66 11.88 2 18 C-1 15 -1 15 -1.07421875 11.42578125 C-0.96149977 10.05326192 -0.83199844 8.68203828 -0.6875 7.3125 C-0.62626953 6.61060547 -0.56503906 5.90871094 -0.50195312 5.18554688 C-0.34897376 3.4557033 -0.17637398 1.72761503 0 0 Z " fill="#093269" transform="translate(193,721)"/>
<path d="M0 0 C0.66 0.33 1.32 0.66 2 1 C0.625 3 0.625 3 -1 5 C-1.66 5 -2.32 5 -3 5 C-3.66 6.32 -4.32 7.64 -5 9 C-5.66 8.34 -6.32 7.68 -7 7 C-2.25 1.125 -2.25 1.125 0 0 Z " fill="#124581" transform="translate(500,586)"/>
<path d="M0 0 C9.41002278 0.96355353 9.41002278 0.96355353 14 2 C14 2.33 14 2.66 14 3 C4.58997722 3.3690205 4.58997722 3.3690205 0 1 C0 0.67 0 0.34 0 0 Z " fill="#0D3971" transform="translate(270,820)"/>
<path d="M0 0 C3.96 0 7.92 0 12 0 C11.67 0.66 11.34 1.32 11 2 C6.63113288 3.19150921 4.04365799 3.021829 0 1 C0 0.67 0 0.34 0 0 Z " fill="#1C4E82" transform="translate(473,669)"/>
<path d="M0 0 C1.8871875 0.0309375 1.8871875 0.0309375 3.8125 0.0625 C-0.01267513 2.45323445 -3.78415524 2.62216552 -8.1875 3.0625 C-6.45706736 -0.39836529 -3.47359009 -0.0569441 0 0 Z " fill="#0F3D77" transform="translate(276.1875,198.9375)"/>
<path d="M0 0 C3.63 0.33 7.26 0.66 11 1 C6.01222852 3.49388574 4.33016752 2.88836125 -1 2 C-0.67 1.34 -0.34 0.68 0 0 Z " fill="#0E3B7C" transform="translate(325,782)"/>
<path d="M0 0 C1.98 1.65 3.96 3.3 6 5 C5.67 5.99 5.34 6.98 5 8 C2.5 5.6875 2.5 5.6875 0 3 C0 2.01 0 1.02 0 0 Z " fill="#134077" transform="translate(219,788)"/>
<path d="M0 0 C2.12038635 2.61514317 4.13091744 5.19637616 6 8 C5.01 8 4.02 8 3 8 C0.19744677 5.0936485 0 4.21174952 0 0 Z " fill="#194A80" transform="translate(721,400)"/>
<path d="M0 0 C4.95 0 9.9 0 15 0 C15 0.33 15 0.66 15 1 C10.05 1 5.1 1 0 1 C0 0.67 0 0.34 0 0 Z " fill="#2C669F" transform="translate(416,510)"/>
<path d="M0 0 C2.64 0 5.28 0 8 0 C5 2 5 2 2.3125 1.625 C1.1678125 1.315625 1.1678125 1.315625 0 1 C0 0.67 0 0.34 0 0 Z " fill="#2B649C" transform="translate(496,510)"/>
<path d="M0 0 C2.97 0 5.94 0 9 0 C9 0.33 9 0.66 9 1 C6.03 1 3.06 1 0 1 C0 0.67 0 0.34 0 0 Z " fill="#2C649D" transform="translate(310,510)"/>
<path d="M0 0 C2.31 0 4.62 0 7 0 C7 0.33 7 0.66 7 1 C4.69 1 2.38 1 0 1 C0 0.67 0 0.34 0 0 Z " fill="#2D669E" transform="translate(448,510)"/>
<path d="M0 0 C2.31 0 4.62 0 7 0 C7 0.33 7 0.66 7 1 C4.69 1 2.38 1 0 1 C0 0.67 0 0.34 0 0 Z " fill="#2C659F" transform="translate(408,510)"/>
<path d="M0 0 C2.31 0 4.62 0 7 0 C7 0.33 7 0.66 7 1 C4.69 1 2.38 1 0 1 C0 0.67 0 0.34 0 0 Z " fill="#2B649E" transform="translate(240,510)"/>
<path d="M0 0 C1.65 0 3.3 0 5 0 C5 0.33 5 0.66 5 1 C3.35 1 1.7 1 0 1 C0 0.67 0 0.34 0 0 Z " fill="#2C66A0" transform="translate(456,510)"/>
<path d="M0 0 C4 1 4 1 4 1 Z " fill="#387694" transform="translate(484,671)"/>
<path d="M0 0 C0.99 0.495 0.99 0.495 2 1 C1.67 1.66 1.34 2.32 1 3 C0.67 2.01 0.34 1.02 0 0 Z " fill="#2A6297" transform="translate(362,563)"/>
<path d="M0 0 C4 1 4 1 4 1 Z " fill="#2D649C" transform="translate(321,510)"/>
<path d="M0 0 C4 1 4 1 4 1 Z " fill="#2B639C" transform="translate(299,510)"/>
<path d="M0 0 C4 1 4 1 4 1 Z " fill="#2B639C" transform="translate(289,510)"/>
<path d="M0 0 C4 1 4 1 4 1 Z " fill="#2D659E" transform="translate(732,239)"/>
<path d="M0 0 C4 1 4 1 4 1 Z " fill="#2D669F" transform="translate(533,239)"/>
<path d="M0 0 C3 1 3 1 3 1 Z " fill="#2A5B8F" transform="translate(749,823)"/>
<path d="M0 0 C0.66 0.66 1.32 1.32 2 2 C1.34 2 0.68 2 0 2 C0 1.34 0 0.68 0 0 Z " fill="#347094" transform="translate(469,670)"/>
<path d="M0 0 C0.99 0.495 0.99 0.495 2 1 C1.01 1.495 1.01 1.495 0 2 C0 1.34 0 0.68 0 0 Z " fill="#337295" transform="translate(466,669)"/>
<path d="" fill="#295B90" transform="translate(0,0)"/>
<path d="" fill="#265D91" transform="translate(0,0)"/>
<path d="M0 0 C3 1 3 1 3 1 Z " fill="#2D67A0" transform="translate(560,239)"/>
<path d="M0 0 C3 1 3 1 3 1 Z " fill="#2D669F" transform="translate(552,239)"/>
<path d="M0 0 C3 1 3 1 3 1 Z " fill="#2D659E" transform="translate(544,239)"/>
<path d="M0 0 C3 1 3 1 3 1 Z " fill="#2C66A0" transform="translate(527,239)"/>
<path d="M0 0 C2 1 2 1 2 1 Z " fill="#27598E" transform="translate(272,823)"/>
<path d="M0 0 C2 1 2 1 2 1 Z " fill="#28598F" transform="translate(268,822)"/>
<path d="M0 0 C2 1 2 1 2 1 Z " fill="#265B8F" transform="translate(265,821)"/>
<path d="M0 0 C2 1 2 1 2 1 Z " fill="#27598D" transform="translate(258,819)"/>
<path d="" fill="#285A8D" transform="translate(0,0)"/>
<path d="M0 0 C2 1 2 1 2 1 Z " fill="#275B90" transform="translate(208,779)"/>
<path d="" fill="#275C90" transform="translate(0,0)"/>
<path d="M0 0 C2 1 2 1 2 1 Z " fill="#337196" transform="translate(472,671)"/>
<path d="M0 0 C2 1 2 1 2 1 Z " fill="#2B6298" transform="translate(361,560)"/>
<path d="" fill="#2B6298" transform="translate(0,0)"/>
<path d="M0 0 C2 1 2 1 2 1 Z " fill="#2B659C" transform="translate(350,511)"/>
<path d="M0 0 C2 1 2 1 2 1 Z " fill="#2B649D" transform="translate(251,510)"/>
<path d="M0 0 C2 1 2 1 2 1 Z " fill="#50A48B" transform="translate(788,505)"/>
<path d="M0 0 C2 1 2 1 2 1 Z " fill="#56A988" transform="translate(780,505)"/>
<path d="M0 0 C2 1 2 1 2 1 Z " fill="#54A986" transform="translate(723,505)"/>
<path d="M0 0 C2 1 2 1 2 1 Z " fill="#50A088" transform="translate(684,505)"/>
<path d="M0 0 C2 1 2 1 2 1 Z " fill="#4A958B" transform="translate(668,505)"/>
<path d="M0 0 C2 1 2 1 2 1 Z " fill="#306698" transform="translate(695,393)"/>
<path d="" fill="#2A629A" transform="translate(0,0)"/>
<path d="M0 0 C2 1 2 1 2 1 Z " fill="#2B629A" transform="translate(753,245)"/>
<path d="M0 0 C2 1 2 1 2 1 Z " fill="#2D659E" transform="translate(703,239)"/>
<path d="M0 0 C2 1 2 1 2 1 Z " fill="#2C669E" transform="translate(672,239)"/>
<path d="M0 0 C2 1 2 1 2 1 Z " fill="#2C659F" transform="translate(655,239)"/>
<path d="M0 0 C2 1 2 1 2 1 Z " fill="#2D649E" transform="translate(631,239)"/>
<path d="M0 0 C2 1 2 1 2 1 Z " fill="#2B649E" transform="translate(624,239)"/>
<path d="M0 0 C2 1 2 1 2 1 Z " fill="#2D679E" transform="translate(608,239)"/>
<path d="M0 0 C2 1 2 1 2 1 Z " fill="#2C659F" transform="translate(600,239)"/>
<path d="M0 0 C2 1 2 1 2 1 Z " fill="#2D669E" transform="translate(596,239)"/>
<path d="M0 0 C2 1 2 1 2 1 Z " fill="#2B659E" transform="translate(584,239)"/>
<path d="M0 0 C2 1 2 1 2 1 Z " fill="#2E67A0" transform="translate(576,239)"/>
<path d="M0 0 C2 1 2 1 2 1 Z " fill="#2C659F" transform="translate(568,239)"/>
<path d="M0 0 C2 1 2 1 2 1 Z " fill="#2C669E" transform="translate(565,239)"/>
<path d="M0 0 C2 1 2 1 2 1 Z " fill="#2D659E" transform="translate(556,239)"/>
<path d="M0 0 C2 1 2 1 2 1 Z " fill="#2E649E" transform="translate(548,239)"/>
<path d="M0 0 C2 1 2 1 2 1 Z " fill="#285E8F" transform="translate(758,200)"/>
<path d="M0 0 C2 1 2 1 2 1 Z " fill="#265C90" transform="translate(262,200)"/>
<path d="" fill="#2B5A8C" transform="translate(0,0)"/>
<path d="" fill="#2A5C8E" transform="translate(0,0)"/>
<path d="" fill="#295D90" transform="translate(0,0)"/>
<path d="" fill="#295B8E" transform="translate(0,0)"/>
<path d="" fill="#26598D" transform="translate(0,0)"/>
<path d="" fill="#275C8F" transform="translate(0,0)"/>
<path d="" fill="#27598E" transform="translate(0,0)"/>
<path d="" fill="#27588D" transform="translate(0,0)"/>
<path d="" fill="#295B8E" transform="translate(0,0)"/>
<path d="" fill="#295C8E" transform="translate(0,0)"/>
<path d="" fill="#285A90" transform="translate(0,0)"/>
<path d="" fill="#285D90" transform="translate(0,0)"/>
<path d="" fill="#2B6297" transform="translate(0,0)"/>
<path d="" fill="#295C8E" transform="translate(0,0)"/>
<path d="" fill="#255B8B" transform="translate(0,0)"/>
<path d="" fill="#26578D" transform="translate(0,0)"/>
<path d="" fill="#265B8E" transform="translate(0,0)"/>
<path d="" fill="#286299" transform="translate(0,0)"/>
<path d="" fill="#276095" transform="translate(0,0)"/>
<path d="" fill="#285E93" transform="translate(0,0)"/>
<path d="" fill="#275C8E" transform="translate(0,0)"/>
<path d="" fill="#27598E" transform="translate(0,0)"/>
<path d="" fill="#2A6298" transform="translate(0,0)"/>
<path d="" fill="#286098" transform="translate(0,0)"/>
<path d="" fill="#285D8E" transform="translate(0,0)"/>
<path d="" fill="#285C92" transform="translate(0,0)"/>
<path d="" fill="#2A6095" transform="translate(0,0)"/>
<path d="" fill="#2B5F96" transform="translate(0,0)"/>
<path d="" fill="#316895" transform="translate(0,0)"/>
<path d="" fill="#306994" transform="translate(0,0)"/>
<path d="" fill="#336A95" transform="translate(0,0)"/>
<path d="" fill="#326B98" transform="translate(0,0)"/>
<path d="" fill="#2D6695" transform="translate(0,0)"/>
<path d="" fill="#2F6898" transform="translate(0,0)"/>
<path d="" fill="#2F6799" transform="translate(0,0)"/>
<path d="" fill="#2E6495" transform="translate(0,0)"/>
<path d="" fill="#2F6594" transform="translate(0,0)"/>
<path d="" fill="#30699C" transform="translate(0,0)"/>
<path d="" fill="#2D699D" transform="translate(0,0)"/>
<path d="" fill="#2E659D" transform="translate(0,0)"/>
<path d="" fill="#2D6497" transform="translate(0,0)"/>
<path d="" fill="#2E6595" transform="translate(0,0)"/>
<path d="" fill="#2C6397" transform="translate(0,0)"/>
<path d="" fill="#2C6397" transform="translate(0,0)"/>
<path d="" fill="#2F6498" transform="translate(0,0)"/>
<path d="" fill="#2F6598" transform="translate(0,0)"/>
<path d="" fill="#2C6295" transform="translate(0,0)"/>
<path d="" fill="#2B6096" transform="translate(0,0)"/>
<path d="" fill="#2C6198" transform="translate(0,0)"/>
<path d="" fill="#2C6399" transform="translate(0,0)"/>
<path d="" fill="#30679B" transform="translate(0,0)"/>
<path d="" fill="#2D69A0" transform="translate(0,0)"/>
<path d="" fill="#2B6499" transform="translate(0,0)"/>
<path d="" fill="#2C649A" transform="translate(0,0)"/>
<path d="" fill="#2E649B" transform="translate(0,0)"/>
<path d="" fill="#2B659E" transform="translate(0,0)"/>
<path d="" fill="#2D659D" transform="translate(0,0)"/>
<path d="" fill="#2C639C" transform="translate(0,0)"/>
<path d="" fill="#2D66A0" transform="translate(0,0)"/>
<path d="" fill="#2D659D" transform="translate(0,0)"/>
<path d="" fill="#2C669E" transform="translate(0,0)"/>
<path d="" fill="#2B639B" transform="translate(0,0)"/>
<path d="" fill="#2C649D" transform="translate(0,0)"/>
<path d="" fill="#2B649F" transform="translate(0,0)"/>
<path d="" fill="#2A619B" transform="translate(0,0)"/>
<path d="" fill="#57AB88" transform="translate(0,0)"/>
<path d="" fill="#59AD8B" transform="translate(0,0)"/>
<path d="" fill="#53A989" transform="translate(0,0)"/>
<path d="" fill="#53A788" transform="translate(0,0)"/>
<path d="" fill="#4FA088" transform="translate(0,0)"/>
<path d="" fill="#4D9A89" transform="translate(0,0)"/>
<path d="" fill="#4B9B8B" transform="translate(0,0)"/>
<path d="" fill="#48968C" transform="translate(0,0)"/>
<path d="" fill="#449290" transform="translate(0,0)"/>
<path d="" fill="#4FA488" transform="translate(0,0)"/>
<path d="" fill="#479886" transform="translate(0,0)"/>
<path d="" fill="#479887" transform="translate(0,0)"/>
<path d="" fill="#2F689D" transform="translate(0,0)"/>
<path d="" fill="#448C8F" transform="translate(0,0)"/>
<path d="" fill="#2E659B" transform="translate(0,0)"/>
<path d="" fill="#30659B" transform="translate(0,0)"/>
<path d="" fill="#2F6799" transform="translate(0,0)"/>
<path d="" fill="#2F679B" transform="translate(0,0)"/>
<path d="" fill="#387097" transform="translate(0,0)"/>
<path d="" fill="#2B5F92" transform="translate(0,0)"/>
<path d="" fill="#31699B" transform="translate(0,0)"/>
<path d="" fill="#2F6291" transform="translate(0,0)"/>
<path d="" fill="#2B5F94" transform="translate(0,0)"/>
<path d="" fill="#306899" transform="translate(0,0)"/>
<path d="" fill="#326697" transform="translate(0,0)"/>
<path d="" fill="#346D94" transform="translate(0,0)"/>
<path d="" fill="#366C96" transform="translate(0,0)"/>
<path d="" fill="#2E6698" transform="translate(0,0)"/>
<path d="" fill="#326599" transform="translate(0,0)"/>
<path d="" fill="#2E5F90" transform="translate(0,0)"/>
<path d="" fill="#2F6595" transform="translate(0,0)"/>
<path d="" fill="#306597" transform="translate(0,0)"/>
<path d="" fill="#306494" transform="translate(0,0)"/>
<path d="" fill="#2F6397" transform="translate(0,0)"/>
<path d="" fill="#2F6394" transform="translate(0,0)"/>
<path d="" fill="#2F6191" transform="translate(0,0)"/>
<path d="" fill="#356996" transform="translate(0,0)"/>
<path d="" fill="#2E6498" transform="translate(0,0)"/>
<path d="" fill="#2C6399" transform="translate(0,0)"/>
<path d="" fill="#275D92" transform="translate(0,0)"/>
<path d="" fill="#296299" transform="translate(0,0)"/>
<path d="" fill="#2C639A" transform="translate(0,0)"/>
<path d="" fill="#2B6098" transform="translate(0,0)"/>
<path d="" fill="#285D91" transform="translate(0,0)"/>
<path d="" fill="#275A90" transform="translate(0,0)"/>
<path d="" fill="#2C6199" transform="translate(0,0)"/>
<path d="" fill="#25578D" transform="translate(0,0)"/>
<path d="" fill="#2A6398" transform="translate(0,0)"/>
<path d="" fill="#2B6299" transform="translate(0,0)"/>
<path d="" fill="#2D659B" transform="translate(0,0)"/>
<path d="" fill="#2D6498" transform="translate(0,0)"/>
<path d="" fill="#265D92" transform="translate(0,0)"/>
<path d="" fill="#245C91" transform="translate(0,0)"/>
<path d="" fill="#265F99" transform="translate(0,0)"/>
<path d="" fill="#2D669F" transform="translate(0,0)"/>
<path d="" fill="#2D679E" transform="translate(0,0)"/>
<path d="" fill="#2C67A0" transform="translate(0,0)"/>
<path d="" fill="#2E669F" transform="translate(0,0)"/>
<path d="" fill="#2D679F" transform="translate(0,0)"/>
<path d="" fill="#2E659E" transform="translate(0,0)"/>
<path d="" fill="#2D659F" transform="translate(0,0)"/>
<path d="" fill="#2D659E" transform="translate(0,0)"/>
<path d="" fill="#2E669D" transform="translate(0,0)"/>
<path d="" fill="#2D669D" transform="translate(0,0)"/>
<path d="" fill="#2C669F" transform="translate(0,0)"/>
<path d="" fill="#2D649E" transform="translate(0,0)"/>
<path d="" fill="#2E659D" transform="translate(0,0)"/>
<path d="" fill="#2E669E" transform="translate(0,0)"/>
<path d="" fill="#2D669D" transform="translate(0,0)"/>
<path d="" fill="#2F659E" transform="translate(0,0)"/>
<path d="" fill="#2D669F" transform="translate(0,0)"/>
<path d="" fill="#2D679E" transform="translate(0,0)"/>
<path d="" fill="#2E679F" transform="translate(0,0)"/>
<path d="" fill="#2E659F" transform="translate(0,0)"/>
<path d="" fill="#2D679E" transform="translate(0,0)"/>
<path d="" fill="#2D67A0" transform="translate(0,0)"/>
<path d="" fill="#295C91" transform="translate(0,0)"/>
<path d="" fill="#295B91" transform="translate(0,0)"/>
<path d="" fill="#25598E" transform="translate(0,0)"/>
<path d="" fill="#235C92" transform="translate(0,0)"/>
<path d="" fill="#2A5D91" transform="translate(0,0)"/>
<path d="" fill="#2A5D92" transform="translate(0,0)"/>
<path d="" fill="#295E92" transform="translate(0,0)"/>
<path d="" fill="#265E90" transform="translate(0,0)"/>
<path d="" fill="#265A8F" transform="translate(0,0)"/>
<path d="" fill="#265B8E" transform="translate(0,0)"/>
<path d="" fill="#23578C" transform="translate(0,0)"/>
<path d="" fill="#285D8E" transform="translate(0,0)"/>
<path d="" fill="#295B90" transform="translate(0,0)"/>
<path d="" fill="#285D91" transform="translate(0,0)"/>
<path d="" fill="#2B5E93" transform="translate(0,0)"/>
<path d="" fill="#285E93" transform="translate(0,0)"/>
<path d="" fill="#275D92" transform="translate(0,0)"/>
</svg>
